<svg width="33" height="33" viewBox="0 0 33 33" fill="none" xmlns="http://www.w3.org/2000/svg">
<path d="M4.125 4.125C4.125 3.03098 4.5596 1.98177 5.33318 1.20818C6.10677 0.434597 7.15598 0 8.25 0L24.75 0C25.844 0 26.8932 0.434597 27.6668 1.20818C28.4404 1.98177 28.875 3.03098 28.875 4.125V31.9688C28.8749 32.1553 28.8242 32.3383 28.7283 32.4983C28.6324 32.6583 28.495 32.7893 28.3305 32.8774C28.1661 32.9654 27.9808 33.0072 27.7945 32.9983C27.6081 32.9894 27.4277 32.9301 27.2724 32.8268L16.5 27.0208L5.72756 32.8268C5.57227 32.9301 5.39185 32.9894 5.20553 32.9983C5.0192 33.0072 4.83395 32.9654 4.6695 32.8774C4.50505 32.7893 4.36756 32.6583 4.27167 32.4983C4.17579 32.3383 4.1251 32.1553 4.125 31.9688V4.125ZM8.25 2.0625C7.70299 2.0625 7.17839 2.2798 6.79159 2.66659C6.4048 3.05339 6.1875 3.57799 6.1875 4.125V30.0424L15.9287 24.9232C16.0979 24.8106 16.2967 24.7505 16.5 24.7505C16.7033 24.7505 16.9021 24.8106 17.0713 24.9232L26.8125 30.0424V4.125C26.8125 3.57799 26.5952 3.05339 26.2084 2.66659C25.8216 2.2798 25.297 2.0625 24.75 2.0625H8.25Z" fill="white"/>
</svg>
