<svg width="33" height="34" viewBox="0 0 33 34" fill="none" xmlns="http://www.w3.org/2000/svg">
<path d="M4.125 4.19043V32.0342C4.12487 32.2133 4.17137 32.3893 4.25994 32.5449C4.3485 32.7006 4.47607 32.8305 4.63009 32.9219C4.78411 33.0132 4.95926 33.0629 5.13832 33.066C5.31737 33.0691 5.49415 33.0256 5.65125 32.9396L16.5 27.0202L27.3488 32.9396C27.5059 33.0256 27.6826 33.0691 27.8617 33.066C28.0407 33.0629 28.2159 33.0132 28.3699 32.9219C28.5239 32.8305 28.6515 32.7006 28.7401 32.5449C28.8286 32.3893 28.8751 32.2133 28.875 32.0342V4.19043C28.875 3.09641 28.4404 2.0472 27.6668 1.27361C26.8932 0.500027 25.844 0.0654297 24.75 0.0654297L8.25 0.0654297C7.15598 0.0654297 6.10677 0.500027 5.33318 1.27361C4.5596 2.0472 4.125 3.09641 4.125 4.19043Z" fill="#879CDE"/>
</svg>
