<svg width="119" height="29" viewBox="0 0 119 29" fill="none" xmlns="http://www.w3.org/2000/svg">
<path d="M52.6518 25.112C52.6265 25.5427 52.5632 25.9987 52.4618 26.48C52.3858 26.9613 52.1452 27.354 51.7398 27.658C51.4358 27.9113 51.0938 28.0633 50.7138 28.114C50.3338 28.1647 49.9538 28.1393 49.5738 28.038C49.2192 27.962 48.8772 27.8353 48.5478 27.658C48.2185 27.4553 47.9525 27.2147 47.7498 26.936C46.8885 25.872 46.0905 24.7827 45.3558 23.668C44.6465 22.528 43.9245 21.388 43.1898 20.248L39.9978 15.422C39.5672 14.738 39.1112 13.978 38.6298 13.142C38.1485 12.2807 37.6545 11.4827 37.1478 10.748L37.0338 25.264V25.606C37.0338 26.0113 36.9578 26.4167 36.8058 26.822C36.6792 27.202 36.4512 27.5313 36.1218 27.81C35.8685 28.0127 35.5392 28.152 35.1338 28.228C34.5005 28.3547 33.9685 28.3167 33.5378 28.114C33.1325 27.9113 32.8032 27.6327 32.5498 27.278C32.3218 26.9233 32.1572 26.518 32.0558 26.062C31.9798 25.5807 31.9672 25.112 32.0178 24.656V24.01L32.0938 21.046L32.1318 15.536C32.1572 14.7253 32.1698 13.902 32.1698 13.066C32.1698 12.2047 32.1698 11.3307 32.1698 10.444C32.1445 9.35467 32.1445 8.202 32.1698 6.986C32.2205 5.77 32.2712 4.63 32.3218 3.566C32.3725 2.98333 32.5118 2.48933 32.7398 2.084C32.8412 1.72933 33.1072 1.42533 33.5378 1.172C33.8165 0.994665 34.1712 0.880665 34.6018 0.829999C35.0578 0.779333 35.4505 0.791999 35.7798 0.867998C35.9065 0.918666 36.0332 0.981999 36.1598 1.058C36.2865 1.10867 36.4132 1.172 36.5398 1.248C36.6665 1.34933 36.7805 1.45066 36.8818 1.552C37.0085 1.65333 37.1225 1.76733 37.2238 1.894C37.3505 2.02067 37.4645 2.16 37.5658 2.312C37.6672 2.43867 37.7685 2.56533 37.8698 2.692C37.9458 2.844 38.0218 2.98333 38.0978 3.11C38.1738 3.23667 38.2625 3.36333 38.3638 3.49L38.7818 4.098L47.5598 17.93V15.422C47.5598 14.6113 47.5472 13.788 47.5218 12.952C47.5218 12.0907 47.5092 11.204 47.4838 10.292C47.4838 9.228 47.4838 8.088 47.4838 6.872C47.5092 5.656 47.5472 4.516 47.5978 3.452C47.5978 3.02133 47.7245 2.52733 47.9778 1.97C48.1045 1.64067 48.3198 1.37467 48.6238 1.172C48.9278 0.969332 49.2698 0.829999 49.6498 0.754C50.0298 0.677999 50.4098 0.677999 50.7898 0.754C51.1698 0.829999 51.4992 0.981998 51.7778 1.21C51.8538 1.286 51.9298 1.37467 52.0058 1.476C52.0818 1.57733 52.1452 1.69133 52.1958 1.818C52.3225 2.14733 52.3985 2.43867 52.4238 2.692C52.4998 3.04667 52.5378 3.36333 52.5378 3.642C52.5378 6.80867 52.5378 10.0387 52.5378 13.332C52.5632 16.6253 52.5885 19.8553 52.6138 23.022C52.6138 23.3767 52.6265 23.7313 52.6518 24.086C52.6772 24.4153 52.6772 24.7573 52.6518 25.112ZM68.8778 22.794C69.1818 22.718 69.4858 22.6673 69.7898 22.642C70.1192 22.6167 70.4105 22.6547 70.6638 22.756C70.9425 22.8573 71.1705 23.0347 71.3478 23.288C71.5252 23.516 71.6138 23.8453 71.6138 24.276C71.6138 24.58 71.5378 24.8713 71.3858 25.15C71.2338 25.4287 71.0438 25.682 70.8158 25.91C70.5878 26.138 70.3345 26.3407 70.0558 26.518C69.7772 26.67 69.5112 26.7967 69.2578 26.898C68.5232 27.2273 67.6745 27.4807 66.7118 27.658C65.7745 27.8353 64.7992 27.8987 63.7858 27.848C62.4178 27.7973 61.1005 27.5313 59.8338 27.05C58.5925 26.5433 57.6172 25.72 56.9078 24.58C56.2492 23.4653 55.8565 22.224 55.7298 20.856C55.6032 19.488 55.6665 18.196 55.9198 16.98C56.1985 15.5107 56.6672 14.32 57.3258 13.408C58.0098 12.4707 58.8205 11.7233 59.7578 11.166C60.8978 10.5073 62.1772 10.1653 63.5958 10.14C65.0145 10.1147 66.3698 10.3933 67.6618 10.976C68.5232 11.356 69.2958 11.8753 69.9798 12.534C70.6638 13.1673 71.1832 13.94 71.5378 14.852C71.6392 15.08 71.7152 15.3587 71.7658 15.688C71.8418 16.0173 71.8925 16.372 71.9178 16.752C71.9432 17.1067 71.9432 17.4613 71.9178 17.816C71.8925 18.1707 71.8292 18.4873 71.7278 18.766C71.5758 19.222 71.3858 19.5767 71.1578 19.83C70.9298 20.0833 70.6385 20.2733 70.2838 20.4C69.9292 20.5267 69.4985 20.6153 68.9918 20.666C68.5105 20.6913 67.9278 20.7167 67.2438 20.742C66.6358 20.7673 66.0658 20.78 65.5338 20.78C65.0018 20.78 64.4572 20.78 63.8998 20.78C63.3425 20.7547 62.7598 20.742 62.1518 20.742C61.5692 20.7167 60.9105 20.6913 60.1758 20.666C60.0998 21.1727 60.1632 21.616 60.3658 21.996C60.5938 22.3507 60.8978 22.6547 61.2778 22.908C61.6578 23.136 62.0885 23.3133 62.5698 23.44C63.0512 23.5667 63.5198 23.6427 63.9758 23.668C64.8372 23.7187 65.6605 23.6553 66.4458 23.478C67.2312 23.2753 68.0418 23.0473 68.8778 22.794ZM67.2438 15.422C66.7625 14.8647 66.2558 14.4593 65.7238 14.206C65.3185 14.0287 64.8878 13.9527 64.4318 13.978C64.0012 13.978 63.5832 14.0413 63.1778 14.168C62.4432 14.3453 61.8225 14.7253 61.3158 15.308C61.2652 15.3587 61.1765 15.4853 61.0498 15.688C60.9232 15.8653 60.7965 16.0553 60.6698 16.258C60.5685 16.4607 60.4925 16.6507 60.4418 16.828C60.3912 17.0053 60.4165 17.094 60.5178 17.094H67.9658C67.9405 16.7393 67.8772 16.448 67.7758 16.22C67.6745 15.9667 67.4972 15.7007 67.2438 15.422ZM84.0716 21.312C83.5903 21.008 83.0456 20.7673 82.4376 20.59C81.8549 20.4127 81.2469 20.248 80.6136 20.096C80.0056 19.944 79.4103 19.7793 78.8276 19.602C78.2449 19.3993 77.7129 19.1207 77.2316 18.766C76.1929 17.9807 75.5849 17.018 75.4076 15.878C75.2556 14.7127 75.5089 13.5473 76.1676 12.382C76.5223 11.774 76.9909 11.28 77.5736 10.9C78.1563 10.4947 78.7896 10.1907 79.4736 9.988C80.1829 9.76 80.9049 9.63333 81.6396 9.608C82.3743 9.58267 83.0709 9.62067 83.7296 9.722C84.1603 9.798 84.6163 9.912 85.0976 10.064C85.5789 10.1907 86.0223 10.368 86.4276 10.596C86.8583 10.824 87.2383 11.1153 87.5676 11.47C87.9223 11.7993 88.1756 12.2173 88.3276 12.724C88.4289 13.0533 88.4416 13.37 88.3656 13.674C88.3149 13.978 88.1883 14.2313 87.9856 14.434C87.8083 14.6367 87.5676 14.7887 87.2636 14.89C86.9849 14.9913 86.6809 15.0167 86.3516 14.966C85.9716 14.89 85.6169 14.776 85.2876 14.624C84.9583 14.472 84.6289 14.3073 84.2996 14.13C83.9703 13.9527 83.6283 13.8007 83.2736 13.674C82.9443 13.5473 82.5896 13.484 82.2096 13.484C81.6269 13.4587 81.1456 13.56 80.7656 13.788C80.3856 14.016 80.1196 14.2947 79.9676 14.624C79.8409 14.9533 79.8536 15.308 80.0056 15.688C80.1829 16.068 80.5376 16.3973 81.0696 16.676C81.5509 16.9293 82.0829 17.132 82.6656 17.284C83.2483 17.436 83.8183 17.588 84.3756 17.74C84.9583 17.892 85.5156 18.0693 86.0476 18.272C86.6049 18.4747 87.0989 18.7533 87.5296 19.108C88.3656 19.792 88.8723 20.59 89.0496 21.502C89.2523 22.414 89.2016 23.3133 88.8976 24.2C88.5936 25.0867 88.0616 25.872 87.3016 26.556C86.5669 27.24 85.6929 27.696 84.6796 27.924C83.9449 28.076 83.1469 28.152 82.2856 28.152C81.4496 28.152 80.6136 28.0633 79.7776 27.886C78.9669 27.7087 78.1816 27.43 77.4216 27.05C76.6869 26.67 76.0663 26.1887 75.5596 25.606C75.2049 25.2007 75.0149 24.7447 74.9896 24.238C74.9896 23.706 75.0909 23.25 75.2936 22.87C75.5216 22.4647 75.8383 22.186 76.2436 22.034C76.6489 21.882 77.1049 21.9707 77.6116 22.3C78.0169 22.5787 78.4983 22.8573 79.0556 23.136C79.6129 23.3893 80.1703 23.592 80.7276 23.744C81.2849 23.896 81.8169 23.972 82.3236 23.972C82.8556 23.972 83.3116 23.858 83.6916 23.63C84.2489 23.2753 84.5403 22.87 84.5656 22.414C84.5909 21.9327 84.4263 21.5653 84.0716 21.312ZM97.0335 13.598C97.0335 14.3073 97.0335 15.1053 97.0335 15.992C97.0588 16.8787 97.0715 17.8033 97.0715 18.766C97.0715 19.7033 97.0715 20.6407 97.0715 21.578C97.0715 22.49 97.0588 23.3387 97.0335 24.124C97.0081 24.504 96.9701 24.922 96.9195 25.378C96.8688 25.8087 96.7675 26.214 96.6155 26.594C96.4635 26.974 96.2228 27.2907 95.8935 27.544C95.5895 27.772 95.1715 27.8733 94.6395 27.848C93.8541 27.7973 93.2841 27.4553 92.9295 26.822C92.6001 26.1887 92.4101 25.302 92.3595 24.162C92.3595 23.5793 92.3468 22.908 92.3215 22.148C92.3215 21.388 92.3088 20.6153 92.2835 19.83C92.2835 19.0447 92.2835 18.2847 92.2835 17.55C92.2835 16.79 92.2835 16.106 92.2835 15.498C92.2835 15.1433 92.2708 14.7127 92.2455 14.206C92.2455 13.6993 92.2581 13.18 92.2835 12.648C92.3088 12.116 92.3721 11.6093 92.4735 11.128C92.5748 10.6213 92.7395 10.2033 92.9675 9.874C93.1448 9.67133 93.3981 9.51933 93.7275 9.418C94.0568 9.29133 94.3988 9.228 94.7535 9.228C95.1335 9.228 95.4881 9.29133 95.8175 9.418C96.1721 9.54467 96.4255 9.722 96.5775 9.95C96.6788 10.102 96.7548 10.3173 96.8055 10.596C96.8561 10.8747 96.8941 11.1913 96.9195 11.546C96.9701 11.8753 96.9955 12.23 96.9955 12.61C97.0208 12.9647 97.0335 13.294 97.0335 13.598ZM95.5895 5.922C94.8041 6.12467 94.1455 6.04867 93.6135 5.694C93.1068 5.314 92.7901 4.75666 92.6635 4.022C92.5621 3.49 92.6001 3.02133 92.7775 2.616C92.9548 2.21067 93.2208 1.90667 93.5755 1.704C93.9301 1.476 94.3355 1.37467 94.7915 1.4C95.2475 1.42533 95.7035 1.60266 96.1595 1.932C96.5901 2.236 96.8941 2.59067 97.0715 2.996C97.2741 3.40133 97.3375 3.794 97.2615 4.174C97.2108 4.554 97.0461 4.90866 96.7675 5.238C96.4888 5.542 96.0961 5.77 95.5895 5.922ZM105.274 10.824C106.11 10.4187 106.984 10.1273 107.896 9.95C108.808 9.77267 109.708 9.73467 110.594 9.836C111.506 9.93733 112.38 10.178 113.216 10.558C114.078 10.938 114.863 11.47 115.572 12.154C116.155 12.7367 116.662 13.446 117.092 14.282C117.523 15.0927 117.84 15.8907 118.042 16.676C118.473 18.0693 118.536 19.4753 118.232 20.894C117.928 22.3127 117.409 23.63 116.674 24.846C116.32 25.4033 115.876 25.91 115.344 26.366C114.838 26.7967 114.293 27.1513 113.71 27.43C112.95 27.7847 112.127 28.0253 111.24 28.152C110.354 28.304 109.492 28.342 108.656 28.266C107.136 28.19 105.794 27.81 104.628 27.126C103.488 26.442 102.564 25.568 101.854 24.504C101.17 23.44 100.714 22.2367 100.486 20.894C100.284 19.526 100.372 18.1327 100.752 16.714C101.158 15.194 101.74 13.9653 102.5 13.028C103.286 12.0653 104.21 11.3307 105.274 10.824ZM106.414 15.916C106.034 16.2707 105.743 16.714 105.54 17.246C105.338 17.778 105.211 18.3353 105.16 18.918C105.11 19.4753 105.148 20.0453 105.274 20.628C105.426 21.1853 105.654 21.692 105.958 22.148C106.212 22.528 106.668 22.8447 107.326 23.098C107.985 23.3513 108.669 23.5033 109.378 23.554C110.189 23.6047 110.898 23.3893 111.506 22.908C112.114 22.4013 112.57 21.7807 112.874 21.046C113.204 20.3113 113.356 19.5133 113.33 18.652C113.305 17.7907 113.077 17.0053 112.646 16.296C112.342 15.7893 111.912 15.422 111.354 15.194C110.822 14.9407 110.252 14.814 109.644 14.814C109.062 14.7887 108.479 14.8773 107.896 15.08C107.314 15.2573 106.82 15.536 106.414 15.916Z" fill="white"/>
<g clip-path="url(#clip0_0_1)">
<path fill-rule="evenodd" clip-rule="evenodd" d="M16.1619 4.65783C15.9227 4.43578 15.5984 4.31104 15.2601 4.31104C14.9219 4.31104 14.5975 4.43578 14.3583 4.65783L5.42941 12.949L2.8783 15.3179C2.75648 15.4272 2.6593 15.5579 2.59245 15.7024C2.5256 15.8469 2.49041 16.0023 2.48894 16.1596C2.48747 16.3169 2.51974 16.4729 2.58388 16.6184C2.64801 16.764 2.74273 16.8962 2.86249 17.0074C2.98226 17.1187 3.12468 17.2066 3.28144 17.2662C3.4382 17.3257 3.60616 17.3557 3.77553 17.3543C3.9449 17.353 4.11228 17.3203 4.2679 17.2582C4.42352 17.1961 4.56427 17.1059 4.68194 16.9928L5.05568 16.6457V24.4466C5.05568 25.389 5.45884 26.2928 6.17648 26.9592C6.89412 27.6256 7.86745 27.9999 8.88234 27.9999H21.6379C22.6528 27.9999 23.6261 27.6256 24.3438 26.9592C25.0614 26.2928 25.4646 25.389 25.4646 24.4466V16.6457L25.8383 16.9928C26.0789 17.2085 26.4011 17.3279 26.7355 17.3252C27.07 17.3225 27.3899 17.1979 27.6264 16.9783C27.8629 16.7587 27.997 16.4617 28 16.1511C28.0029 15.8405 27.8743 15.5413 27.6419 15.3179L16.1619 4.65783Z" fill="white"/>
</g>
<defs>
<clipPath id="clip0_0_1">
<rect width="28" height="26" fill="white" transform="translate(0 2)"/>
</clipPath>
</defs>
</svg>
