<svg width="35" height="35" viewBox="0 0 33 33" fill="none" xmlns="http://www.w3.org/2000/svg">
<path fill-rule="evenodd" clip-rule="evenodd" d="M19.6707 9.88483C19.4387 8.47384 19.732 7.02675 20.4952 5.81752C21.2584 4.60829 22.4385 3.72086 23.8121 3.32324C25.1856 2.92563 26.6573 3.04543 27.9484 3.65996C29.2396 4.27449 30.2606 5.3411 30.8182 6.65785C31.3758 7.9746 31.4312 9.45009 30.974 10.805C30.5168 12.1598 29.5787 13.3001 28.3373 14.0098C27.0959 14.7194 25.6374 14.9493 24.2379 14.6559C22.8384 14.3625 21.595 13.5661 20.7432 12.4176L13.3292 15.5526C13.4311 16.1801 13.4311 16.8199 13.3292 17.4473L20.7419 20.5823C21.5936 19.4338 22.837 18.6374 24.2365 18.344C25.636 18.0506 27.0945 18.2805 28.3359 18.9901C29.5773 19.6998 30.5154 20.8401 30.9726 22.1949C31.4298 23.5498 31.3744 25.0253 30.8168 26.3421C30.2592 27.6588 29.2382 28.7254 27.9471 29.34C26.6559 29.9545 25.1843 30.0743 23.8107 29.6767C22.4372 29.2791 21.2571 28.3916 20.4939 27.1824C19.7307 25.9732 19.4373 24.5261 19.6694 23.1151L12.2581 19.9801C11.5261 20.9678 10.5013 21.6995 9.32945 22.0711C8.1576 22.4426 6.8984 22.4352 5.73103 22.0498C4.56365 21.6644 3.54755 20.9206 2.82731 19.9243C2.10706 18.928 1.71936 17.73 1.71936 16.5006C1.71936 15.2713 2.10706 14.0732 2.82731 13.077C3.54755 12.0807 4.56365 11.3369 5.73103 10.9515C6.8984 10.5661 8.1576 10.5586 9.32945 10.9302C10.5013 11.3018 11.5261 12.0335 12.2581 13.0212L19.6707 9.88483Z" fill="white"/>
</svg>
