<svg width="341" height="21" viewBox="0 0 341 21" fill="none" xmlns="http://www.w3.org/2000/svg">
<line x1="0.741699" y1="9.60889" x2="110.742" y2="9.60889" stroke="white"/>
<path d="M140.167 13.4129C140.167 13.2529 140.167 13.1036 140.167 12.9649C140.167 12.8156 140.167 12.6396 140.167 12.4369C140.167 12.2342 140.162 11.9942 140.151 11.7169C140.151 11.4396 140.151 11.0822 140.151 10.6449C140.151 10.2076 140.151 9.68489 140.151 9.07689C140.151 8.45822 140.151 7.71689 140.151 6.85289C140.151 6.67155 140.151 6.50089 140.151 6.34089C140.151 6.17022 140.141 5.99422 140.119 5.81289C140.087 5.62089 140.039 5.49822 139.975 5.44489C139.911 5.39155 139.783 5.36489 139.591 5.36489C139.357 5.36489 139.149 5.36489 138.967 5.36489C138.786 5.36489 138.61 5.36489 138.439 5.36489C138.269 5.36489 138.093 5.36489 137.911 5.36489C137.741 5.36489 137.554 5.36489 137.351 5.36489C136.978 5.36489 136.695 5.26889 136.503 5.07689C136.322 4.88489 136.231 4.63422 136.231 4.32489C136.231 4.09022 136.295 3.90889 136.423 3.78089C136.551 3.64222 136.717 3.54089 136.919 3.47689C137.122 3.41289 137.346 3.37555 137.591 3.36489C137.837 3.34355 138.082 3.33289 138.327 3.33289H140.455C140.509 3.33289 140.562 3.33822 140.615 3.34889C140.679 3.34889 140.738 3.34889 140.791 3.34889C141.047 3.35955 141.298 3.41289 141.543 3.50889C141.629 3.54089 141.709 3.58355 141.783 3.63689C141.869 3.69022 141.938 3.75422 141.991 3.82889C142.098 3.97822 142.157 4.11689 142.167 4.24489C142.178 4.37289 142.194 4.52755 142.215 4.70889C142.226 4.87955 142.231 5.10355 142.231 5.38089C142.242 5.64755 142.247 5.86622 142.247 6.03689C142.333 6.02622 142.413 6.02089 142.487 6.02089C142.562 6.02089 142.631 6.02089 142.695 6.02089H143.911V4.40489C143.911 4.26622 143.911 4.12755 143.911 3.98889C143.911 3.83955 143.927 3.69555 143.959 3.55689C143.981 3.50355 143.997 3.45555 144.007 3.41289C144.029 3.37022 144.05 3.32222 144.071 3.26889C144.135 3.16222 144.199 3.08222 144.263 3.02889C144.327 2.96489 144.418 2.91155 144.535 2.86889C144.631 2.83689 144.727 2.82089 144.823 2.82089C145.175 2.82089 145.442 2.98089 145.623 3.30089C145.666 3.36489 145.698 3.45555 145.719 3.57289C145.741 3.69022 145.757 3.81289 145.767 3.94089C145.778 4.05822 145.783 4.16489 145.783 4.26089C145.783 4.34622 145.783 4.39955 145.783 4.42089V11.9889C145.783 12.7889 145.778 13.3649 145.767 13.7169C145.767 13.9836 145.757 14.1969 145.735 14.3569C145.725 14.5169 145.677 14.7196 145.591 14.9649C145.538 15.1249 145.447 15.2582 145.319 15.3649C145.191 15.4716 145.01 15.5249 144.775 15.5249C144.711 15.5249 144.637 15.5142 144.551 15.4929C144.477 15.4822 144.413 15.4556 144.359 15.4129C144.253 15.3489 144.167 15.2476 144.103 15.1089C144.05 14.9596 144.007 14.8049 143.975 14.6449C143.943 14.4849 143.922 14.3302 143.911 14.1809C143.911 14.0316 143.911 13.9142 143.911 13.8289V11.9409L142.407 11.9089C142.333 11.9089 142.279 11.9036 142.247 11.8929C142.247 11.9036 142.247 11.9676 142.247 12.0849C142.258 12.2022 142.263 12.3462 142.263 12.5169C142.263 12.6876 142.263 12.8742 142.263 13.0769C142.263 13.2689 142.258 13.4502 142.247 13.6209C142.215 14.0049 142.093 14.3142 141.879 14.5489C141.677 14.7836 141.389 14.9009 141.015 14.9009C140.823 14.9009 140.669 14.8529 140.551 14.7569C140.434 14.6609 140.349 14.5382 140.295 14.3889C140.242 14.2396 140.205 14.0796 140.183 13.9089C140.173 13.7276 140.167 13.5622 140.167 13.4129ZM148.599 4.74089C148.621 5.54089 148.626 6.35689 148.615 7.18889C148.605 8.01022 148.599 8.79955 148.599 9.55689V13.5569C148.599 13.8342 148.589 14.1009 148.567 14.3569C148.557 14.6129 148.498 14.8529 148.391 15.0769C148.327 15.2156 148.226 15.3329 148.087 15.4289C147.97 15.5036 147.869 15.5462 147.783 15.5569C147.698 15.5782 147.586 15.5729 147.447 15.5409C147.287 15.5089 147.159 15.4396 147.063 15.3329C146.967 15.2369 146.887 15.1249 146.823 14.9969C146.77 14.8689 146.733 14.7302 146.711 14.5809C146.701 14.4316 146.695 14.2876 146.695 14.1489V4.58089C146.695 4.46355 146.695 4.33022 146.695 4.18089C146.695 4.02089 146.701 3.87155 146.711 3.73289C146.733 3.58355 146.759 3.44489 146.791 3.31689C146.834 3.18889 146.893 3.08755 146.967 3.01289C147.085 2.90622 147.207 2.84222 147.335 2.82089C147.463 2.78889 147.602 2.77289 147.751 2.77289C147.965 2.77289 148.13 2.84755 148.247 2.99689C148.365 3.14622 148.445 3.32755 148.487 3.54089C148.541 3.75422 148.573 3.97289 148.583 4.19689C148.594 4.42089 148.599 4.60222 148.599 4.74089ZM142.407 7.90889C142.333 7.90889 142.279 7.90355 142.247 7.89289V10.0689C142.333 10.0582 142.413 10.0529 142.487 10.0529C142.562 10.0529 142.631 10.0529 142.695 10.0529H143.911V7.94089L142.407 7.90889ZM150.617 13.1889C150.617 12.7089 150.755 12.3089 151.033 11.9889C151.321 11.6689 151.705 11.4182 152.185 11.2369C152.665 11.0449 153.23 10.9116 153.881 10.8369C154.531 10.7622 155.225 10.7249 155.961 10.7249C156.697 10.7249 157.39 10.7516 158.041 10.8049C158.691 10.8582 159.257 10.9756 159.737 11.1569C160.217 11.3276 160.595 11.5729 160.873 11.8929C161.161 12.2129 161.305 12.6449 161.305 13.1889C161.305 13.7222 161.161 14.1489 160.873 14.4689C160.595 14.7889 160.217 15.0342 159.737 15.2049C159.257 15.3862 158.691 15.5036 158.041 15.5569C157.39 15.6209 156.697 15.6529 155.961 15.6529C155.225 15.6529 154.531 15.6209 153.881 15.5569C153.23 15.5036 152.665 15.3862 152.185 15.2049C151.705 15.0342 151.321 14.7889 151.033 14.4689C150.755 14.1489 150.617 13.7222 150.617 13.1889ZM154.697 4.75689C154.697 4.75689 154.691 4.82089 154.681 4.94889C154.681 5.07689 154.681 5.22089 154.681 5.38089C154.681 5.54089 154.681 5.69022 154.681 5.82889C154.691 5.96755 154.697 6.04755 154.697 6.06889C154.75 6.12222 154.846 6.21289 154.985 6.34089C155.123 6.45822 155.241 6.55955 155.337 6.64489C155.443 6.73022 155.55 6.82622 155.657 6.93289C155.774 7.02889 155.891 7.13555 156.009 7.25289C156.083 7.32755 156.153 7.40222 156.217 7.47689C156.281 7.54089 156.339 7.59955 156.393 7.65289C156.595 7.85555 156.798 8.07422 157.001 8.30889C157.203 8.54355 157.342 8.78355 157.417 9.02889C157.449 9.12489 157.454 9.23155 157.433 9.34889C157.411 9.46622 157.342 9.56755 157.225 9.65289C157.043 9.75955 156.851 9.81289 156.649 9.81289C156.414 9.81289 156.19 9.76489 155.977 9.66889C155.763 9.57289 155.593 9.47689 155.465 9.38089C155.262 9.23155 155.075 9.07689 154.905 8.91689C154.734 8.74622 154.563 8.57555 154.393 8.40489C154.275 8.28755 154.142 8.15422 153.993 8.00489C153.843 7.84489 153.694 7.70622 153.545 7.58889L153.113 8.02089C153.038 8.09555 152.963 8.17022 152.889 8.24489C152.814 8.30889 152.745 8.37822 152.681 8.45289C152.542 8.60222 152.398 8.75689 152.249 8.91689C152.099 9.06622 151.929 9.21022 151.737 9.34889C151.299 9.66889 150.889 9.82889 150.505 9.82889C150.451 9.82889 150.403 9.82889 150.361 9.82889C150.329 9.82889 150.286 9.81822 150.233 9.79689C149.998 9.74355 149.843 9.64755 149.769 9.50889C149.694 9.39155 149.667 9.25822 149.689 9.10889C149.721 8.95955 149.769 8.82622 149.833 8.70889C149.918 8.59155 150.014 8.47955 150.121 8.37289C150.227 8.25555 150.334 8.13822 150.441 8.02089C150.537 7.91422 150.686 7.76489 150.889 7.57289C151.102 7.37022 151.315 7.16755 151.529 6.96489C151.742 6.75155 151.939 6.55955 152.121 6.38889C152.302 6.21822 152.414 6.11155 152.457 6.06889V4.75689H151.433C151.305 4.75689 151.155 4.76222 150.985 4.77289C150.814 4.77289 150.643 4.76222 150.473 4.74089C150.313 4.71955 150.163 4.67689 150.025 4.61289C149.886 4.53822 149.785 4.42089 149.721 4.26089C149.667 4.14355 149.63 4.01022 149.609 3.86089C149.598 3.71155 149.609 3.57289 149.641 3.44489C149.683 3.29555 149.779 3.19422 149.929 3.14089C150.078 3.07689 150.222 3.03422 150.361 3.01289C150.382 3.01289 150.467 3.01289 150.617 3.01289C150.777 3.01289 150.947 3.01289 151.129 3.01289C151.31 3.01289 151.481 3.01289 151.641 3.01289C151.801 3.01289 151.897 3.00755 151.929 2.99689H155.673C156.099 2.99689 156.457 3.02355 156.745 3.07689C157.043 3.13022 157.283 3.26355 157.465 3.47689C157.518 3.54089 157.55 3.62622 157.561 3.73289C157.582 3.83955 157.582 3.95155 157.561 4.06889C157.55 4.17555 157.518 4.27689 157.465 4.37289C157.422 4.46889 157.358 4.53822 157.273 4.58089C157.187 4.61289 157.086 4.65022 156.969 4.69289C156.851 4.72489 156.75 4.74622 156.665 4.75689C156.515 4.76755 156.361 4.77289 156.201 4.77289C156.051 4.76222 155.902 4.75689 155.753 4.75689H154.697ZM158.313 7.46089C158.003 7.43955 157.726 7.42355 157.481 7.41289C157.235 7.39155 157.043 7.27422 156.905 7.06089C156.841 6.95422 156.809 6.81555 156.809 6.64489C156.809 6.47422 156.819 6.33022 156.841 6.21289C156.873 6.09555 156.931 5.99955 157.017 5.92489C157.102 5.83955 157.251 5.77022 157.465 5.71689C157.507 5.70622 157.609 5.70089 157.769 5.70089C157.939 5.69022 158.121 5.68489 158.313 5.68489C158.505 5.67422 158.686 5.66889 158.857 5.66889C159.027 5.65822 159.134 5.65289 159.177 5.65289V4.13289C159.166 4.01555 159.161 3.89822 159.161 3.78089C159.171 3.66355 159.193 3.54622 159.225 3.42889C159.246 3.34355 159.267 3.26355 159.289 3.18889C159.31 3.11422 159.358 3.03422 159.433 2.94889C159.518 2.84222 159.635 2.76755 159.785 2.72489C159.945 2.68222 160.115 2.67155 160.297 2.69289C160.457 2.71422 160.601 2.76222 160.729 2.83689C160.857 2.90089 160.947 2.98622 161.001 3.09289C161.065 3.22089 161.102 3.38089 161.113 3.57289C161.134 3.75422 161.145 3.86622 161.145 3.90889V9.39689H161.129C161.129 9.40755 161.123 9.44489 161.113 9.50889C161.102 9.57289 161.081 9.65289 161.049 9.74889C161.017 9.83422 160.969 9.92489 160.905 10.0209C160.841 10.1169 160.755 10.1969 160.649 10.2609C160.499 10.3462 160.334 10.3889 160.153 10.3889C159.971 10.3889 159.795 10.3302 159.625 10.2129C159.497 10.1276 159.406 10.0209 159.353 9.89289C159.289 9.77555 159.246 9.65822 159.225 9.54089C159.203 9.42355 159.187 9.30622 159.177 9.18889V7.46089H158.313ZM159.145 13.1889C159.145 13.0076 159.049 12.8636 158.857 12.7569C158.665 12.6502 158.414 12.5702 158.105 12.5169C157.806 12.4636 157.465 12.4316 157.081 12.4209C156.707 12.3996 156.334 12.3889 155.961 12.3889C155.587 12.3889 155.214 12.3996 154.841 12.4209C154.478 12.4316 154.147 12.4636 153.849 12.5169C153.561 12.5702 153.326 12.6502 153.145 12.7569C152.963 12.8636 152.873 13.0076 152.873 13.1889C152.873 13.3489 152.963 13.4822 153.145 13.5889C153.326 13.6956 153.561 13.7756 153.849 13.8289C154.147 13.8822 154.478 13.9196 154.841 13.9409C155.214 13.9622 155.587 13.9729 155.961 13.9729C156.334 13.9729 156.707 13.9729 157.081 13.9729C157.465 13.9729 157.806 13.9516 158.105 13.9089C158.414 13.8662 158.665 13.7916 158.857 13.6849C159.049 13.5676 159.145 13.4022 159.145 13.1889ZM178.038 12.7409C178.07 12.7516 178.102 12.7569 178.134 12.7569C178.166 12.7462 178.198 12.7409 178.23 12.7409C178.411 12.7622 178.576 12.7996 178.726 12.8529C178.886 12.8956 179.04 12.9809 179.19 13.1089C179.339 13.2582 179.414 13.4449 179.414 13.6689C179.414 13.7862 179.392 13.9142 179.35 14.0529C179.318 14.1809 179.27 14.2822 179.206 14.3569C179.12 14.4422 179.014 14.5062 178.886 14.5489C178.758 14.5916 178.635 14.6236 178.518 14.6449C178.4 14.6556 178.294 14.6609 178.198 14.6609C178.112 14.6609 178.064 14.6609 178.054 14.6609H169.094C169.04 14.6609 168.987 14.6662 168.934 14.6769C168.88 14.6769 168.827 14.6769 168.774 14.6769C168.55 14.6876 168.31 14.6876 168.054 14.6769C167.798 14.6556 167.579 14.5702 167.398 14.4209C167.174 14.2182 167.062 13.9889 167.062 13.7329C167.062 13.5729 167.11 13.4076 167.206 13.2369C167.302 13.0662 167.43 12.9489 167.59 12.8849C167.803 12.7996 168.022 12.7569 168.246 12.7569C168.48 12.7569 168.715 12.7516 168.95 12.7409H169.03C170.054 12.7196 171.099 12.7196 172.166 12.7409L172.15 11.2369H170.486C170.272 11.2369 170.048 11.2369 169.814 11.2369C169.59 11.2369 169.36 11.2316 169.126 11.2209C168.902 11.1996 168.715 11.0876 168.566 10.8849C168.416 10.6822 168.331 10.4422 168.31 10.1649C168.299 10.0689 168.288 9.91422 168.278 9.70089C168.278 9.48755 168.272 9.26355 168.262 9.02889C168.262 8.79422 168.262 8.57555 168.262 8.37289C168.262 8.17022 168.262 8.02622 168.262 7.94089V7.55689C168.251 7.42889 168.251 7.29555 168.262 7.15689C168.283 7.00755 168.342 6.87422 168.438 6.75689C168.576 6.57555 168.768 6.46355 169.014 6.42089C169.27 6.36755 169.515 6.34089 169.75 6.34089C169.803 6.34089 169.888 6.34622 170.006 6.35689C170.134 6.36755 170.235 6.36755 170.31 6.35689H175.99V5.01289H170.15C170.096 5.01289 170.038 5.01822 169.974 5.02889C169.91 5.02889 169.851 5.02889 169.798 5.02889C169.734 5.02889 169.664 5.03422 169.59 5.04489C169.526 5.04489 169.462 5.04489 169.398 5.04489C169.174 5.04489 168.992 5.02355 168.854 4.98089C168.672 4.93822 168.523 4.81555 168.406 4.61289C168.267 4.36755 168.23 4.10622 168.294 3.82889C168.347 3.63689 168.47 3.49289 168.662 3.39689C168.854 3.30089 169.008 3.24222 169.126 3.22089C169.211 3.19955 169.291 3.18889 169.366 3.18889C169.451 3.18889 169.542 3.18889 169.638 3.18889H170.198C170.368 3.18889 170.576 3.19422 170.822 3.20489C171.078 3.20489 171.344 3.20489 171.622 3.20489C171.899 3.20489 172.176 3.20489 172.454 3.20489C172.742 3.19422 173.003 3.18889 173.238 3.18889H176.47C176.651 3.18889 176.832 3.19422 177.014 3.20489C177.195 3.21555 177.371 3.24755 177.542 3.30089C177.798 3.37555 177.963 3.54089 178.038 3.79689C178.112 4.04222 178.15 4.28222 178.15 4.51689V6.62889C178.15 6.71422 178.139 6.82622 178.118 6.96489C178.107 7.10355 178.086 7.24755 178.054 7.39689C178.022 7.54622 177.974 7.69022 177.91 7.82889C177.856 7.95689 177.787 8.04755 177.702 8.10089C177.552 8.18622 177.408 8.23955 177.27 8.26089C177.131 8.27155 176.998 8.27155 176.87 8.26089H170.55V9.54089H176.886C176.982 9.54089 177.072 9.54089 177.158 9.54089C177.254 9.54089 177.344 9.54622 177.43 9.55689C177.59 9.56755 177.734 9.61555 177.862 9.70089C178 9.77555 178.096 9.90355 178.15 10.0849C178.203 10.2982 178.192 10.5009 178.118 10.6929C178.054 10.8849 177.926 11.0236 177.734 11.1089C177.606 11.1622 177.472 11.1996 177.334 11.2209C177.206 11.2316 177.083 11.2369 176.966 11.2369H174.214L174.23 12.7409C174.486 12.7409 174.72 12.7409 174.934 12.7409C175.158 12.7302 175.376 12.7249 175.59 12.7249C175.814 12.7249 176.032 12.7302 176.246 12.7409C176.47 12.7409 176.704 12.7409 176.95 12.7409C177.142 12.7516 177.328 12.7516 177.51 12.7409C177.691 12.7196 177.867 12.7196 178.038 12.7409ZM182.078 5.79689C181.886 5.79689 181.673 5.74889 181.438 5.65289C181.214 5.55689 181.043 5.41289 180.926 5.22089C180.819 5.05022 180.771 4.83155 180.782 4.56489C180.803 4.28755 180.894 4.07955 181.054 3.94089C181.182 3.83422 181.326 3.75955 181.486 3.71689C181.657 3.66355 181.833 3.63155 182.014 3.62089C182.195 3.59955 182.371 3.58889 182.542 3.58889C182.723 3.58889 182.894 3.58889 183.054 3.58889H183.582C183.667 3.57822 183.753 3.57822 183.838 3.58889C183.934 3.58889 184.03 3.58889 184.126 3.58889C184.211 3.58889 184.409 3.58889 184.718 3.58889C185.027 3.58889 185.363 3.58889 185.726 3.58889C186.089 3.58889 186.425 3.58889 186.734 3.58889C187.043 3.58889 187.241 3.58889 187.326 3.58889C187.486 3.59955 187.646 3.60489 187.806 3.60489C187.977 3.59422 188.147 3.58889 188.318 3.58889C188.499 3.58889 188.691 3.59422 188.894 3.60489C189.097 3.61555 189.289 3.64755 189.47 3.70089C189.651 3.75422 189.817 3.83955 189.966 3.95689C190.115 4.06355 190.222 4.22355 190.286 4.43689C190.371 4.72489 190.419 5.01822 190.43 5.31689C190.451 5.60489 190.462 5.91955 190.462 6.26089C190.451 6.50622 190.446 6.70889 190.446 6.86889C190.457 7.01822 190.462 7.21555 190.462 7.46089C190.462 7.57822 190.462 7.69555 190.462 7.81289C190.462 7.93022 190.467 8.04755 190.478 8.16489C190.478 8.30355 190.478 8.45822 190.478 8.62889C190.478 8.79955 190.478 8.97555 190.478 9.15689C190.478 9.32755 190.473 9.49822 190.462 9.66889C190.462 9.83955 190.457 9.99422 190.446 10.1329C190.403 10.2929 190.371 10.4529 190.35 10.6129C190.339 10.7622 190.291 10.9169 190.206 11.0769C190.153 11.1729 190.067 11.2689 189.95 11.3649C189.897 11.4182 189.817 11.4609 189.71 11.4929C189.614 11.5142 189.523 11.5249 189.438 11.5249C189.289 11.5249 189.161 11.5089 189.054 11.4769C188.766 11.3809 188.569 11.2476 188.462 11.0769C188.366 10.9062 188.307 10.6982 188.286 10.4529C188.275 10.3462 188.265 10.1969 188.254 10.0049C188.243 9.81289 188.233 9.61555 188.222 9.41289C188.222 9.21022 188.222 9.02355 188.222 8.85289C188.222 8.68222 188.222 8.55955 188.222 8.48489C188.201 8.13289 188.19 7.81289 188.19 7.52489C188.19 7.22622 188.179 6.90622 188.158 6.56489C188.147 6.46889 188.147 6.37822 188.158 6.29289C188.169 6.19689 188.153 6.10089 188.11 6.00489C188.078 5.93022 188.03 5.88222 187.966 5.86089C187.913 5.82889 187.849 5.81289 187.774 5.81289C187.699 5.80222 187.625 5.80222 187.55 5.81289C187.475 5.81289 187.406 5.80755 187.342 5.79689C187.225 5.78622 187.134 5.78622 187.07 5.79689C187.017 5.79689 186.931 5.79689 186.814 5.79689H183.294C183.23 5.79689 183.155 5.79689 183.07 5.79689C182.985 5.78622 182.899 5.78622 182.814 5.79689C182.697 5.81822 182.574 5.82355 182.446 5.81289C182.318 5.80222 182.195 5.79689 182.078 5.79689ZM181.422 14.5809C181.251 14.5702 181.081 14.5489 180.91 14.5169C180.75 14.4742 180.606 14.4209 180.478 14.3569C180.35 14.2822 180.243 14.1809 180.158 14.0529C180.083 13.9249 180.046 13.7542 180.046 13.5409C180.046 13.3276 180.115 13.1409 180.254 12.9809C180.339 12.8956 180.446 12.8316 180.574 12.7889C180.702 12.7462 180.825 12.7142 180.942 12.6929C181.059 12.6716 181.161 12.6609 181.246 12.6609C181.342 12.6609 181.395 12.6609 181.406 12.6609L190.158 12.6769C190.435 12.6769 190.686 12.6822 190.91 12.6929C191.145 12.6929 191.353 12.7676 191.534 12.9169C191.758 13.1196 191.87 13.3489 191.87 13.6049C191.87 13.7649 191.822 13.9142 191.726 14.0529C191.63 14.1809 191.502 14.2716 191.342 14.3249C191.129 14.4102 190.905 14.4689 190.67 14.5009C190.446 14.5329 190.222 14.5542 189.998 14.5649C189.219 14.5969 188.451 14.6076 187.694 14.5969C186.937 14.5862 186.201 14.5809 185.486 14.5809C184.718 14.5809 183.966 14.5862 183.23 14.5969C182.505 14.6076 181.902 14.6022 181.422 14.5809ZM198.595 3.15689C199.245 3.53022 199.709 4.01022 199.987 4.59689C200.125 4.88489 200.216 5.20489 200.259 5.55689C200.301 5.90889 200.312 6.30355 200.291 6.74089C200.259 7.22089 200.152 7.65289 199.971 8.03689C199.789 8.42089 199.549 8.75155 199.251 9.02889C198.963 9.29555 198.621 9.50355 198.227 9.65289C197.832 9.79155 197.411 9.86089 196.963 9.86089H196.147C196.04 9.86089 195.933 9.86089 195.827 9.86089C195.72 9.85022 195.608 9.83422 195.491 9.81289C195.373 9.81289 195.261 9.79689 195.155 9.76489C195.048 9.73289 194.936 9.70622 194.819 9.68489C194.701 9.63155 194.584 9.57289 194.467 9.50889C194.36 9.44489 194.232 9.37022 194.083 9.28489C193.592 8.96489 193.251 8.53289 193.059 7.98889C192.973 7.74355 192.909 7.48222 192.867 7.20489C192.824 6.92755 192.803 6.65555 192.803 6.38889C192.803 6.10089 192.824 5.82355 192.867 5.55689C192.92 5.29022 193.005 5.03422 193.123 4.78889C193.208 4.53289 193.336 4.30889 193.507 4.11689C193.677 3.91422 193.869 3.72222 194.083 3.54089C194.275 3.38089 194.472 3.24755 194.675 3.14089C194.877 3.02355 195.101 2.93289 195.347 2.86889C195.56 2.78355 195.789 2.73022 196.035 2.70889C196.28 2.68755 196.515 2.68755 196.739 2.70889C196.856 2.74089 196.952 2.76222 197.027 2.77289C197.112 2.77289 197.192 2.77289 197.267 2.77289C197.352 2.79422 197.427 2.81022 197.491 2.82089C197.565 2.82089 197.635 2.83689 197.699 2.86889C197.773 2.89022 197.843 2.91155 197.907 2.93289C197.981 2.94355 198.051 2.96489 198.115 2.99689C198.179 3.01822 198.253 3.04489 198.339 3.07689C198.424 3.10889 198.509 3.13555 198.595 3.15689ZM203.939 13.6529C204.088 13.6529 204.211 13.7169 204.307 13.8449C204.403 13.9729 204.467 14.1276 204.499 14.3089C204.52 14.5222 204.509 14.6982 204.467 14.8369C204.424 14.9649 204.36 15.0876 204.275 15.2049C204.115 15.3436 203.976 15.4289 203.859 15.4609C203.805 15.4609 203.757 15.4716 203.715 15.4929C203.672 15.5142 203.613 15.5249 203.539 15.5249H202.387H200.387H198.195H196.451H195.715C195.491 15.5249 195.293 15.5196 195.123 15.5089C194.963 15.4982 194.819 15.4609 194.691 15.3969C194.573 15.3329 194.477 15.2369 194.403 15.1089C194.339 14.9916 194.307 14.8742 194.307 14.7569V12.3089V12.0049V11.6849V11.4609C194.371 11.2262 194.477 11.0502 194.627 10.9329C194.744 10.8582 194.851 10.8049 194.947 10.7729C195.053 10.7302 195.171 10.7089 195.299 10.7089C195.32 10.7089 195.384 10.7196 195.491 10.7409C195.608 10.7516 195.683 10.7569 195.715 10.7569C195.779 10.7782 195.837 10.8049 195.891 10.8369C195.955 10.8582 196.013 10.9062 196.067 10.9809C196.088 11.0236 196.115 11.0716 196.147 11.1249C196.179 11.1676 196.205 11.2209 196.227 11.2849C196.259 11.3596 196.275 11.4289 196.275 11.4929C196.285 11.5569 196.301 11.6209 196.323 11.6849V12.0849V12.3889V12.9009V13.3809V13.6049H196.643C196.707 13.6156 196.781 13.6209 196.867 13.6209C196.941 13.6316 197.021 13.6369 197.107 13.6369C197.192 13.6369 197.288 13.6369 197.395 13.6369C197.459 13.6369 197.619 13.6369 197.875 13.6369C198.141 13.6369 198.456 13.6369 198.819 13.6369C199.192 13.6262 199.597 13.6209 200.035 13.6209C200.472 13.6209 200.888 13.6209 201.283 13.6209C201.688 13.6209 202.051 13.6262 202.371 13.6369C202.701 13.6369 202.947 13.6369 203.107 13.6369H203.507C203.528 13.6369 203.576 13.6422 203.651 13.6529C203.725 13.6529 203.821 13.6529 203.939 13.6529ZM198.371 6.24489C198.349 6.12755 198.328 6.02622 198.307 5.94089C198.285 5.84489 198.264 5.74889 198.243 5.65289C198.189 5.56755 198.141 5.48222 198.099 5.39689C198.056 5.31155 197.997 5.23689 197.923 5.17289C197.859 5.10889 197.784 5.05555 197.699 5.01289C197.613 4.95955 197.512 4.90622 197.395 4.85289C197.256 4.82089 197.123 4.79422 196.995 4.77289C196.867 4.74089 196.733 4.72489 196.595 4.72489C196.445 4.72489 196.301 4.74089 196.163 4.77289C196.024 4.79422 195.896 4.82089 195.779 4.85289C195.651 4.92755 195.528 5.00222 195.411 5.07689C195.304 5.15155 195.208 5.24755 195.123 5.36489C195.016 5.45022 194.936 5.56222 194.883 5.70089C194.829 5.82889 194.776 5.98355 194.723 6.16489C194.723 6.28222 194.723 6.39422 194.723 6.50089C194.723 6.60755 194.733 6.71955 194.755 6.83689C194.755 6.94355 194.776 7.05022 194.819 7.15689C194.861 7.26355 194.915 7.35955 194.979 7.44489C195.053 7.54089 195.133 7.62622 195.219 7.70089C195.304 7.76489 195.395 7.82889 195.491 7.89289C195.608 7.95689 195.731 8.01555 195.859 8.06889C195.987 8.11155 196.141 8.14355 196.323 8.16489C196.44 8.16489 196.552 8.16489 196.659 8.16489C196.765 8.15422 196.877 8.13822 196.995 8.11689C197.208 8.11689 197.416 8.05822 197.619 7.94089C197.704 7.89822 197.789 7.84489 197.875 7.78089C197.971 7.70622 198.051 7.62622 198.115 7.54089C198.253 7.34889 198.339 7.14089 198.371 6.91689V6.24489ZM204.403 9.50889C204.403 9.61555 204.392 9.72222 204.371 9.82889C204.349 9.93555 204.328 10.0476 204.307 10.1649C204.211 10.5062 203.987 10.7142 203.635 10.7889C203.293 10.8636 203.016 10.7889 202.803 10.5649C202.6 10.3409 202.477 10.0742 202.435 9.76489C202.413 9.67955 202.397 9.59422 202.387 9.50889C202.387 9.41289 202.387 9.32222 202.387 9.23689V8.69289L202.435 4.56489C202.435 4.41555 202.429 4.25555 202.419 4.08489C202.419 3.90355 202.429 3.73289 202.451 3.57289C202.483 3.40222 202.541 3.24755 202.627 3.10889C202.712 2.97022 202.845 2.85822 203.027 2.77289C203.112 2.71955 203.203 2.69289 203.299 2.69289C203.405 2.68222 203.517 2.68755 203.635 2.70889C203.88 2.74089 204.061 2.84222 204.179 3.01289C204.307 3.18355 204.381 3.38089 204.403 3.60489V4.14889V9.50889Z" fill="white"/>
<line x1="230.742" y1="9.60889" x2="340.742" y2="9.60889" stroke="white"/>
</svg>
