<svg width="35" height="35" viewBox="0 0 35 35" fill="none" xmlns="http://www.w3.org/2000/svg">
<path fill-rule="evenodd" clip-rule="evenodd" d="M17.5 14.5834C20.7216 14.5834 23.3333 11.9718 23.3333 8.75006C23.3333 5.52842 20.7216 2.91675 17.5 2.91675C14.2784 2.91675 11.6666 5.52842 11.6666 8.75006C11.6666 11.9717 14.2783 14.5834 17.5 14.5834ZM17.5 5.83344C19.1108 5.83344 20.4166 7.13924 20.4166 8.75006C20.4166 10.3609 19.1108 11.6667 17.5 11.6667C15.8892 11.6667 14.5833 10.3609 14.5833 8.75006C14.5833 7.13924 15.8892 5.83344 17.5 5.83344ZM20.4166 17.5001H14.5833C9.75085 17.5001 5.83331 21.4176 5.83331 26.2501V32.0834H29.1666V26.2501C29.1666 21.4176 25.2492 17.5001 20.4166 17.5001ZM26.25 29.1667H8.75V26.2501C8.75 23.0284 11.3617 20.4167 14.5833 20.4167H20.4166C23.6383 20.4167 26.25 23.0284 26.25 26.2501V29.1667Z" fill="white"/>
</svg>
