<svg width="342" height="20" viewBox="0 0 342 20" fill="none" xmlns="http://www.w3.org/2000/svg">
<line y1="9.5" x2="90" y2="9.5" stroke="white"/>
<path d="M117.206 13.528C117.195 13.528 117.152 13.5173 117.078 13.496C117.014 13.4747 116.939 13.4427 116.854 13.4C116.768 13.3573 116.688 13.2987 116.614 13.224C116.539 13.1493 116.496 13.0533 116.486 12.936C116.422 12.5413 116.486 12.2213 116.678 11.976C116.806 11.8267 116.944 11.7413 117.094 11.72C117.243 11.688 117.323 11.672 117.334 11.672H120.63C120.63 11.5547 120.635 11.4427 120.646 11.336C120.656 11.2187 120.662 11.0853 120.662 10.936C120.416 10.936 120.096 10.936 119.702 10.936C119.318 10.9253 118.918 10.92 118.502 10.92C118.086 10.9093 117.686 10.8987 117.302 10.888C116.918 10.8773 116.614 10.8613 116.39 10.84C116.219 10.8187 116.08 10.7973 115.974 10.776C115.878 10.744 115.76 10.664 115.622 10.536C115.483 10.408 115.414 10.2213 115.414 9.976C115.414 9.752 115.483 9.57067 115.622 9.432C115.696 9.34667 115.798 9.28267 115.926 9.24C116.054 9.19733 116.176 9.16533 116.294 9.144C116.411 9.12267 116.512 9.112 116.598 9.112C116.694 9.112 116.747 9.112 116.758 9.112H125.91C126.07 9.112 126.23 9.112 126.39 9.112C126.55 9.112 126.704 9.11733 126.854 9.128C127.003 9.13867 127.147 9.16 127.286 9.192C127.435 9.224 127.568 9.29333 127.686 9.4C127.803 9.48533 127.867 9.58133 127.878 9.688C127.899 9.79467 127.91 9.912 127.91 10.04C127.91 10.3707 127.739 10.5947 127.398 10.712C127.184 10.7973 126.95 10.8507 126.694 10.872C126.448 10.8827 126.214 10.8933 125.99 10.904C125.456 10.9253 124.939 10.9413 124.438 10.952C123.936 10.9627 123.414 10.968 122.87 10.968C122.859 11.1067 122.848 11.2293 122.838 11.336C122.838 11.4427 122.832 11.5547 122.822 11.672H125.238H125.27C125.28 11.672 125.291 11.672 125.302 11.672C125.312 11.6613 125.328 11.656 125.35 11.656C125.787 11.656 126.123 11.7253 126.358 11.864C126.603 12.0027 126.726 12.1947 126.726 12.44V13.528C126.726 13.5813 126.726 13.64 126.726 13.704C126.736 13.7573 126.742 13.8107 126.742 13.864C126.742 13.9173 126.742 13.9973 126.742 14.104C126.742 14.2107 126.742 14.3227 126.742 14.44C126.742 14.5467 126.742 14.6533 126.742 14.76C126.742 14.8667 126.736 14.952 126.726 15.016C126.704 15.24 126.614 15.4213 126.454 15.56C126.304 15.6987 126.107 15.768 125.862 15.768C125.744 15.768 125.632 15.752 125.526 15.72C125.376 15.6773 125.259 15.6133 125.174 15.528C125.099 15.4427 125.04 15.3467 124.998 15.24C124.966 15.1333 124.939 15.0213 124.918 14.904C124.907 14.776 124.902 14.6533 124.902 14.536C124.902 14.4933 124.896 14.424 124.886 14.328C124.886 14.232 124.88 14.136 124.87 14.04C124.87 13.9333 124.864 13.8373 124.854 13.752C124.854 13.6667 124.848 13.6027 124.838 13.56C124.806 13.5493 124.715 13.5387 124.566 13.528C124.427 13.5173 124.16 13.512 123.766 13.512C123.584 13.512 123.424 13.5173 123.286 13.528C123.147 13.528 123.019 13.528 122.902 13.528H122.55H117.206ZM116.918 8.008C116.8 7.912 116.704 7.79467 116.63 7.656C116.566 7.50667 116.518 7.36267 116.486 7.224C116.454 7.07467 116.432 6.94667 116.422 6.84C116.411 6.73333 116.406 6.67467 116.406 6.664V3.624C116.406 3.42133 116.454 3.224 116.55 3.032C116.656 2.82933 116.827 2.712 117.062 2.68C117.168 2.66933 117.286 2.67467 117.414 2.696C117.542 2.70667 117.659 2.73867 117.766 2.792C117.883 2.83467 117.979 2.904 118.054 3C118.139 3.08533 118.192 3.192 118.214 3.32C118.224 3.37333 118.224 3.45333 118.214 3.56C118.214 3.656 118.214 3.768 118.214 3.896C118.214 4.01333 118.214 4.12533 118.214 4.232C118.224 4.33867 118.24 4.41333 118.262 4.456C118.283 4.50933 118.336 4.536 118.422 4.536C118.507 4.52533 118.576 4.52533 118.63 4.536C118.875 4.55733 119.12 4.56267 119.366 4.552C119.622 4.53067 119.878 4.52 120.134 4.52H124.55C124.646 4.52 124.72 4.52533 124.774 4.536C124.891 4.54667 124.976 4.54667 125.03 4.536C125.083 4.52533 125.163 4.50933 125.27 4.488C125.28 4.44533 125.286 4.38133 125.286 4.296C125.296 4.2 125.302 4.104 125.302 4.008C125.302 3.90133 125.302 3.8 125.302 3.704C125.302 3.608 125.302 3.53867 125.302 3.496C125.312 3.304 125.355 3.13333 125.43 2.984C125.504 2.824 125.638 2.72267 125.83 2.68C126.203 2.60533 126.502 2.65867 126.726 2.84C126.95 3.02133 127.056 3.304 127.046 3.688C127.046 3.93333 127.046 4.20533 127.046 4.504C127.046 4.80267 127.046 5.10667 127.046 5.416C127.056 5.72533 127.056 6.03467 127.046 6.344C127.046 6.64267 127.035 6.91467 127.014 7.16C126.992 7.30933 126.96 7.432 126.918 7.528C126.875 7.624 126.811 7.736 126.726 7.864C126.64 7.98133 126.528 8.072 126.39 8.136C126.251 8.18933 126.102 8.22667 125.942 8.248C125.782 8.26933 125.622 8.28 125.462 8.28C125.302 8.28 125.158 8.28 125.03 8.28C124.859 8.29067 124.71 8.296 124.582 8.296C124.464 8.296 124.352 8.296 124.246 8.296C124.139 8.296 124.022 8.296 123.894 8.296C123.776 8.28533 123.632 8.28 123.462 8.28C123.206 8.28 122.971 8.28 122.758 8.28C122.555 8.28 122.352 8.28 122.15 8.28C121.947 8.28 121.739 8.28 121.526 8.28C121.312 8.28 121.078 8.28 120.822 8.28C120.64 8.28 120.459 8.28533 120.278 8.296C120.096 8.30667 119.915 8.312 119.734 8.312C119.222 8.30133 118.715 8.30133 118.214 8.312C117.99 8.312 117.76 8.296 117.526 8.264C117.302 8.232 117.099 8.14667 116.918 8.008ZM118.262 6.568C118.283 6.664 118.331 6.73333 118.406 6.776C118.491 6.808 118.582 6.82933 118.678 6.84C118.784 6.85067 118.891 6.856 118.998 6.856C119.104 6.84533 119.19 6.84 119.254 6.84C119.552 6.84 119.846 6.84533 120.134 6.856C120.432 6.856 120.726 6.856 121.014 6.856C121.216 6.856 121.392 6.856 121.542 6.856C121.691 6.856 121.835 6.856 121.974 6.856C122.123 6.856 122.272 6.856 122.422 6.856C122.582 6.84533 122.763 6.84 122.966 6.84C123.072 6.82933 123.179 6.82933 123.286 6.84C123.392 6.84 123.504 6.84 123.622 6.84C123.707 6.84 123.787 6.83467 123.862 6.824C123.947 6.81333 124.032 6.81333 124.118 6.824C124.203 6.84533 124.288 6.856 124.374 6.856C124.47 6.84533 124.56 6.84 124.646 6.84C124.699 6.85067 124.763 6.86133 124.838 6.872C124.912 6.872 124.982 6.872 125.046 6.872C125.11 6.86133 125.163 6.83467 125.206 6.792C125.248 6.74933 125.27 6.68533 125.27 6.6C125.27 6.51467 125.275 6.44 125.286 6.376C125.296 6.312 125.27 6.24267 125.206 6.168C125.12 6.08267 125.03 6.03467 124.934 6.024C124.838 6.01333 124.736 6.01333 124.63 6.024H122.23C122.198 6.024 122.059 6.024 121.814 6.024C121.568 6.024 121.302 6.024 121.014 6.024C120.726 6.01333 120.459 6.008 120.214 6.008C119.968 6.008 119.83 6.008 119.798 6.008C119.702 6.008 119.563 6.00267 119.382 5.992C119.2 5.97067 119.024 5.96533 118.854 5.976C118.683 5.98667 118.534 6.024 118.406 6.088C118.288 6.152 118.23 6.264 118.23 6.424C118.23 6.47733 118.23 6.50933 118.23 6.52C118.24 6.52 118.251 6.536 118.262 6.568ZM133.354 2.984C133.365 2.984 133.418 2.984 133.514 2.984C133.621 2.984 133.733 2.984 133.85 2.984C133.978 2.984 134.09 2.98933 134.186 3C134.293 3 134.346 3 134.346 3C134.688 3 134.965 3.064 135.178 3.192C135.392 3.30933 135.557 3.45867 135.674 3.64C135.802 3.81067 135.888 3.99733 135.93 4.2C135.973 4.40267 135.994 4.584 135.994 4.744V12.856C135.994 12.8667 135.989 12.9307 135.978 13.048C135.978 13.1547 135.968 13.2827 135.946 13.432C135.925 13.5813 135.893 13.736 135.85 13.896C135.818 14.056 135.77 14.1893 135.706 14.296C135.621 14.424 135.493 14.5253 135.322 14.6C135.162 14.6747 134.997 14.7333 134.826 14.776C134.666 14.808 134.517 14.8293 134.378 14.84C134.24 14.84 134.165 14.84 134.154 14.84H131.258C131.162 14.84 131.013 14.8347 130.81 14.824C130.618 14.8027 130.416 14.7653 130.202 14.712C129.989 14.648 129.786 14.5573 129.594 14.44C129.413 14.3227 129.28 14.1627 129.194 13.96C129.045 13.608 128.96 13.24 128.938 12.856C128.928 12.472 128.928 12.0933 128.938 11.72V5.96C128.938 5.928 128.928 5.82133 128.906 5.64C128.896 5.448 128.89 5.23467 128.89 5C128.89 4.75467 128.906 4.50933 128.938 4.264C128.97 4.008 129.029 3.79467 129.114 3.624C129.221 3.41067 129.365 3.256 129.546 3.16C129.728 3.064 129.925 3.00533 130.138 2.984C130.362 2.952 130.586 2.94667 130.81 2.968C131.045 2.97867 131.258 2.984 131.45 2.984C131.792 2.984 132.112 2.98933 132.41 3C132.72 3 133.034 2.99467 133.354 2.984ZM140.282 7.576C140.336 7.576 140.384 7.58133 140.426 7.592C140.48 7.60267 140.533 7.608 140.586 7.608C140.64 7.61867 140.698 7.62933 140.762 7.64C140.826 7.64 140.89 7.64533 140.954 7.656C141.072 7.67733 141.189 7.72 141.306 7.784C141.424 7.83733 141.509 7.92267 141.562 8.04C141.637 8.15733 141.674 8.296 141.674 8.456C141.674 8.54133 141.669 8.62133 141.658 8.696C141.658 8.76 141.648 8.83467 141.626 8.92C141.605 9.00533 141.578 9.096 141.546 9.192C141.525 9.288 141.477 9.36267 141.402 9.416C141.253 9.52267 141.109 9.592 140.97 9.624C140.8 9.64533 140.592 9.65067 140.346 9.64C140.101 9.62933 139.893 9.62933 139.722 9.64C139.712 9.64 139.701 9.64533 139.69 9.656H139.674L139.658 9.672V9.72C139.658 9.848 139.658 10.0027 139.658 10.184C139.658 10.3547 139.658 10.536 139.658 10.728C139.658 10.9093 139.658 11.0907 139.658 11.272C139.658 11.4427 139.658 11.5973 139.658 11.736C139.68 12.2907 139.68 12.8347 139.658 13.368V13.592C139.658 13.7307 139.653 13.8853 139.642 14.056C139.642 14.216 139.632 14.376 139.61 14.536C139.589 14.696 139.552 14.8507 139.498 15C139.445 15.1387 139.37 15.256 139.274 15.352C139.146 15.5013 138.976 15.576 138.762 15.576C138.762 15.576 138.752 15.5707 138.73 15.56C138.474 15.5493 138.266 15.4747 138.106 15.336C137.957 15.1973 137.84 15.0267 137.754 14.824C137.68 14.6213 137.632 14.4133 137.61 14.2C137.589 13.976 137.578 13.7787 137.578 13.608V4.104C137.578 4.09333 137.578 4.04533 137.578 3.96C137.578 3.864 137.589 3.75733 137.61 3.64C137.632 3.512 137.664 3.384 137.706 3.256C137.76 3.11733 137.829 3.00533 137.914 2.92C137.989 2.84533 138.096 2.792 138.234 2.76C138.384 2.71733 138.517 2.696 138.634 2.696C138.869 2.696 139.066 2.776 139.226 2.936C139.376 3.08533 139.461 3.24533 139.482 3.416C139.514 3.576 139.541 3.74667 139.562 3.928C139.573 3.97067 139.578 4.03467 139.578 4.12C139.6 4.30133 139.61 4.488 139.61 4.68C139.621 4.872 139.632 5.064 139.642 5.256C139.642 5.37333 139.642 5.49067 139.642 5.608C139.653 5.71467 139.658 5.82667 139.658 5.944C139.648 6.008 139.642 6.072 139.642 6.136C139.653 6.18933 139.658 6.24267 139.658 6.296V7.192C139.658 7.24533 139.658 7.304 139.658 7.368C139.658 7.432 139.669 7.49067 139.69 7.544C139.69 7.55467 139.744 7.56 139.85 7.56C139.957 7.56 140.016 7.56 140.026 7.56C140.122 7.58133 140.197 7.58667 140.25 7.576H140.282ZM130.986 12.408C130.997 12.4933 131.029 12.5787 131.082 12.664C131.146 12.7493 131.237 12.8027 131.354 12.824L132.842 12.84C132.97 12.8293 133.098 12.8187 133.226 12.808C133.354 12.7867 133.472 12.744 133.578 12.68C133.696 12.616 133.76 12.504 133.77 12.344C133.781 12.184 133.781 12.0293 133.77 11.88V11.704C133.77 11.5653 133.77 11.448 133.77 11.352C133.77 11.2453 133.77 11.144 133.77 11.048C133.77 10.952 133.77 10.856 133.77 10.76C133.77 10.6533 133.77 10.5307 133.77 10.392V6.536C133.77 6.39733 133.765 6.264 133.754 6.136C133.744 6.01867 133.733 5.90133 133.722 5.784C133.722 5.66667 133.717 5.56533 133.706 5.48C133.685 5.27733 133.61 5.15467 133.482 5.112C133.365 5.05867 133.274 5.032 133.21 5.032H133.194L131.834 5C131.578 5 131.392 5.03733 131.274 5.112C131.157 5.18667 131.072 5.29867 131.018 5.448C131.008 5.50133 130.997 5.58133 130.986 5.688C130.986 5.784 130.986 5.89067 130.986 6.008C130.986 6.11467 130.986 6.22667 130.986 6.344C130.986 6.45067 130.986 6.536 130.986 6.6V12.408ZM143.655 6.984C143.751 6.99467 143.858 6.98933 143.975 6.968C144.103 6.936 144.22 6.92 144.327 6.92C144.423 6.90933 144.594 6.904 144.839 6.904C145.084 6.89333 145.362 6.888 145.671 6.888C145.991 6.87733 146.327 6.872 146.679 6.872C147.031 6.872 147.367 6.872 147.687 6.872C148.007 6.86133 148.295 6.856 148.551 6.856C148.807 6.856 148.994 6.856 149.111 6.856C149.324 6.856 149.543 6.856 149.767 6.856C150.002 6.856 150.242 6.86133 150.487 6.872C150.487 6.65867 150.487 6.408 150.487 6.12C150.487 5.832 150.476 5.58133 150.455 5.368C150.338 5.368 150.151 5.368 149.895 5.368C149.639 5.368 149.346 5.368 149.015 5.368C148.695 5.368 148.354 5.368 147.991 5.368C147.639 5.368 147.303 5.37333 146.983 5.384C146.663 5.384 146.37 5.384 146.103 5.384C145.847 5.384 145.66 5.384 145.543 5.384C145.202 5.384 144.839 5.37867 144.455 5.368C144.082 5.35733 143.692 5.32533 143.287 5.272C143.084 5.25067 142.935 5.13333 142.839 4.92C142.754 4.696 142.716 4.44533 142.727 4.168C142.727 3.92267 142.812 3.736 142.983 3.608C143.164 3.48 143.351 3.38933 143.543 3.336C143.778 3.272 144.002 3.24 144.215 3.24C144.439 3.22933 144.674 3.21867 144.919 3.208C145.068 3.208 145.218 3.21333 145.367 3.224C145.516 3.224 145.666 3.224 145.815 3.224H149.511C149.575 3.224 149.639 3.224 149.703 3.224C149.778 3.21333 149.847 3.21333 149.911 3.224H150.375C150.482 3.224 150.583 3.22933 150.679 3.24C150.775 3.24 150.876 3.24 150.983 3.24C151.079 3.24 151.175 3.24 151.271 3.24C151.367 3.24 151.468 3.24533 151.575 3.256C151.618 3.256 151.66 3.256 151.703 3.256C151.756 3.256 151.81 3.26667 151.863 3.288C151.884 3.29867 151.911 3.30933 151.943 3.32C151.975 3.33067 152.002 3.34133 152.023 3.352C152.247 3.45867 152.418 3.608 152.535 3.8C152.631 3.96 152.695 4.136 152.727 4.328C152.759 4.52 152.775 4.70667 152.775 4.888C152.775 5.4 152.78 5.95467 152.791 6.552C152.802 7.14933 152.796 7.704 152.775 8.216C152.764 8.36533 152.754 8.568 152.743 8.824C152.743 9.06933 152.727 9.33067 152.695 9.608C152.674 9.87467 152.642 10.1307 152.599 10.376C152.556 10.6107 152.498 10.7973 152.423 10.936C152.338 11.096 152.215 11.224 152.055 11.32C151.906 11.416 151.746 11.4747 151.575 11.496C151.404 11.5173 151.239 11.5013 151.079 11.448C150.919 11.384 150.791 11.272 150.695 11.112C150.599 10.952 150.53 10.776 150.487 10.584C150.455 10.392 150.439 10.2 150.439 10.008C150.439 9.80533 150.444 9.60267 150.455 9.4C150.476 9.19733 150.487 9 150.487 8.808H143.751C143.751 8.808 143.724 8.79733 143.671 8.776C143.628 8.744 143.575 8.70667 143.511 8.664C143.447 8.62133 143.378 8.568 143.303 8.504C143.239 8.44 143.186 8.37067 143.143 8.296C143.068 8.14667 143.031 7.976 143.031 7.784C143.031 7.57067 143.074 7.40533 143.159 7.288C143.234 7.17067 143.314 7.096 143.399 7.064C143.484 7.032 143.57 7.00533 143.655 6.984ZM143.399 14.472C143.228 14.4613 143.058 14.44 142.887 14.408C142.727 14.3653 142.583 14.312 142.455 14.248C142.327 14.1733 142.22 14.072 142.135 13.944C142.06 13.816 142.023 13.6453 142.023 13.432C142.023 13.2187 142.092 13.032 142.231 12.872C142.316 12.7867 142.423 12.7227 142.551 12.68C142.679 12.6373 142.802 12.6053 142.919 12.584C143.036 12.5627 143.138 12.552 143.223 12.552C143.319 12.552 143.372 12.552 143.383 12.552L152.135 12.568C152.412 12.568 152.663 12.5733 152.887 12.584C153.122 12.584 153.33 12.6587 153.511 12.808C153.735 13.0107 153.847 13.24 153.847 13.496C153.847 13.656 153.799 13.8053 153.703 13.944C153.607 14.072 153.479 14.1627 153.319 14.216C153.106 14.3013 152.882 14.36 152.647 14.392C152.423 14.424 152.199 14.4453 151.975 14.456C151.196 14.488 150.428 14.4987 149.671 14.488C148.914 14.4773 148.178 14.472 147.463 14.472C146.695 14.472 145.943 14.4773 145.207 14.488C144.482 14.4987 143.879 14.4933 143.399 14.472ZM168.601 7.208C168.793 7.208 169.001 7.24 169.225 7.304C169.459 7.35733 169.641 7.49067 169.769 7.704C169.875 7.87467 169.918 8.09867 169.897 8.376C169.886 8.64267 169.801 8.84533 169.641 8.984C169.513 9.09067 169.363 9.17067 169.193 9.224C169.022 9.27733 168.841 9.31467 168.649 9.336C168.467 9.35733 168.286 9.368 168.105 9.368C167.923 9.368 167.753 9.368 167.593 9.368C167.507 9.368 167.417 9.368 167.321 9.368C167.225 9.35733 167.134 9.35733 167.049 9.368H166.505C166.419 9.368 166.227 9.368 165.929 9.368C165.641 9.368 165.331 9.368 165.001 9.368C164.681 9.368 164.371 9.368 164.073 9.368C163.785 9.368 163.598 9.368 163.513 9.368C163.353 9.35733 163.187 9.35733 163.017 9.368C162.846 9.368 162.675 9.368 162.505 9.368C162.323 9.368 162.126 9.36267 161.913 9.352C161.71 9.34133 161.513 9.30933 161.321 9.256C161.139 9.20267 160.974 9.11733 160.825 9C160.675 8.88267 160.569 8.712 160.505 8.488C160.462 8.37067 160.425 8.25867 160.393 8.152C160.371 8.04533 160.361 7.93333 160.361 7.816C160.35 7.76267 160.345 7.68267 160.345 7.576C160.345 7.52267 160.339 7.48 160.329 7.448C160.329 7.40533 160.329 7.36267 160.329 7.32C160.318 7.20267 160.313 7.09067 160.313 6.984C160.313 6.86667 160.313 6.74933 160.313 6.632C160.313 6.504 160.313 6.42933 160.313 6.408C160.313 6.376 160.313 6.36 160.313 6.36C160.313 6.36 160.313 6.34933 160.313 6.328C160.313 6.296 160.313 6.216 160.313 6.088C160.313 5.97067 160.313 5.82667 160.313 5.656C160.313 5.47467 160.307 5.32533 160.297 5.208C160.297 5.15467 160.297 5.10667 160.297 5.064C160.297 5.02133 160.302 4.97333 160.313 4.92C160.313 4.824 160.313 4.728 160.313 4.632C160.313 4.52533 160.318 4.424 160.329 4.328C160.339 4.28533 160.345 4.22667 160.345 4.152C160.366 4.01333 160.393 3.88 160.425 3.752C160.457 3.61333 160.505 3.48533 160.569 3.368C160.633 3.26133 160.723 3.16 160.841 3.064C160.862 3.04267 160.889 3.02667 160.921 3.016C160.953 3.00533 160.979 2.99467 161.001 2.984C161.129 2.93067 161.251 2.904 161.369 2.904C161.422 2.904 161.481 2.90933 161.545 2.92C161.609 2.92 161.667 2.93067 161.721 2.952C161.913 3.00533 162.057 3.10133 162.153 3.24C162.238 3.35733 162.297 3.48 162.329 3.608C162.35 3.69333 162.366 3.784 162.377 3.88C162.387 3.976 162.398 4.072 162.409 4.168C162.43 4.31733 162.446 4.46667 162.457 4.616C162.467 4.75467 162.478 4.89867 162.489 5.048C162.499 5.19733 162.505 5.34133 162.505 5.48C162.515 5.61867 162.521 5.75733 162.521 5.896C162.521 6.01333 162.521 6.09333 162.521 6.136C162.521 6.17867 162.521 6.216 162.521 6.248C162.521 6.28 162.521 6.31733 162.521 6.36C162.531 6.40267 162.542 6.48267 162.553 6.6C162.563 6.696 162.563 6.76533 162.553 6.808C162.542 6.85067 162.558 6.91467 162.601 7C162.633 7.08533 162.681 7.144 162.745 7.176C162.809 7.19733 162.873 7.21333 162.937 7.224C163.011 7.224 163.086 7.21867 163.161 7.208C163.246 7.19733 163.321 7.19733 163.385 7.208C163.502 7.22933 163.609 7.23467 163.705 7.224C163.811 7.21333 163.923 7.208 164.041 7.208H167.353C167.417 7.208 167.491 7.21333 167.577 7.224C167.662 7.224 167.753 7.21867 167.849 7.208C167.966 7.19733 168.089 7.19733 168.217 7.208C168.345 7.208 168.473 7.208 168.601 7.208ZM160.697 12.488C160.451 12.4773 160.217 12.4453 159.993 12.392C159.779 12.328 159.603 12.1893 159.465 11.976C159.347 11.7947 159.289 11.6027 159.289 11.4C159.299 11.1867 159.379 11.0053 159.529 10.856C159.614 10.7707 159.721 10.7067 159.849 10.664C159.977 10.6213 160.099 10.5893 160.217 10.568C160.334 10.5467 160.435 10.536 160.521 10.536C160.617 10.536 160.67 10.536 160.681 10.536H169.401C169.571 10.5253 169.753 10.5253 169.945 10.536C170.147 10.5467 170.334 10.584 170.505 10.648C170.675 10.7013 170.819 10.7973 170.937 10.936C171.054 11.064 171.113 11.2453 171.113 11.48C171.113 11.7467 171.022 11.9493 170.841 12.088C170.659 12.216 170.441 12.312 170.185 12.376C169.939 12.4293 169.683 12.4613 169.417 12.472C169.15 12.472 168.931 12.472 168.761 12.472H168.137C167.923 12.4827 167.715 12.488 167.513 12.488C167.31 12.4773 167.102 12.472 166.889 12.472H166.281C166.291 12.792 166.302 13.1387 166.313 13.512C166.323 13.8853 166.307 14.2 166.265 14.456C166.243 14.6587 166.19 14.8507 166.105 15.032C166.03 15.224 165.902 15.3787 165.721 15.496C165.561 15.6027 165.374 15.656 165.161 15.656C164.947 15.6667 164.755 15.624 164.585 15.528C164.446 15.4427 164.345 15.32 164.281 15.16C164.217 15 164.174 14.8453 164.153 14.696C164.131 14.5787 164.115 14.424 164.105 14.232C164.105 14.04 164.105 13.8853 164.105 13.768C164.094 13.576 164.089 13.368 164.089 13.144C164.099 12.9093 164.105 12.68 164.105 12.456H163.705C163.406 12.456 163.134 12.4613 162.889 12.472C162.654 12.472 162.425 12.4773 162.201 12.488C161.977 12.488 161.742 12.488 161.497 12.488C161.262 12.488 160.995 12.488 160.697 12.488ZM182.35 6.632C182.52 6.64267 182.67 6.68533 182.798 6.76C182.926 6.824 183.016 6.94667 183.07 7.128C183.187 7.544 183.048 7.832 182.654 7.992C182.526 8.04533 182.392 8.07733 182.254 8.088C182.126 8.09867 182.003 8.104 181.886 8.104H174.574C174.36 8.104 174.136 8.104 173.902 8.104C173.678 8.104 173.448 8.09867 173.214 8.088C172.99 8.06667 172.798 7.98133 172.638 7.832C172.488 7.672 172.403 7.464 172.382 7.208C172.36 7.016 172.35 6.81867 172.35 6.616C172.35 6.40267 172.35 6.22133 172.35 6.072C172.35 6.05067 172.344 6.024 172.334 5.992C172.334 5.96 172.334 5.93333 172.334 5.912C172.334 5.79467 172.339 5.65067 172.35 5.48C172.36 5.29867 172.414 5.14933 172.51 5.032C172.659 4.86133 172.856 4.76 173.102 4.728C173.347 4.68533 173.587 4.664 173.822 4.664H179.758C179.95 4.664 180.099 4.664 180.206 4.664C180.312 4.664 180.408 4.664 180.494 4.664C180.579 4.664 180.664 4.664 180.75 4.664C180.835 4.664 180.942 4.664 181.07 4.664C181.07 4.64267 181.07 4.6 181.07 4.536C181.08 4.46133 181.086 4.392 181.086 4.328C181.096 4.25333 181.102 4.18933 181.102 4.136C181.102 4.072 181.091 4.04 181.07 4.04H174.222C174.168 4.04 174.11 4.04 174.046 4.04C173.992 4.02933 173.934 4.02933 173.87 4.04H173.486C173.379 4.04 173.283 4.04 173.198 4.04C173.112 4.04 173.027 4.02933 172.942 4.008C172.846 3.98667 172.755 3.95467 172.67 3.912C172.584 3.85867 172.515 3.78933 172.462 3.704C172.419 3.608 172.392 3.50667 172.382 3.4C172.382 3.29333 172.382 3.192 172.382 3.096C172.382 3 172.408 2.90933 172.462 2.824C172.526 2.73867 172.595 2.66933 172.67 2.616C172.755 2.56267 172.84 2.53067 172.926 2.52C173.011 2.50933 173.107 2.49333 173.214 2.472C173.299 2.45067 173.384 2.44533 173.47 2.456C173.555 2.46667 173.64 2.46667 173.726 2.456C173.822 2.44533 173.912 2.44 173.998 2.44C174.094 2.44 174.19 2.44 174.286 2.44C174.616 2.45067 175.038 2.456 175.549 2.456C176.062 2.44533 176.558 2.44 177.038 2.44H181.406C181.95 2.44 182.366 2.53067 182.654 2.712C182.942 2.88267 183.086 3.17067 183.086 3.576V4.696C183.086 4.792 183.086 4.89867 183.086 5.016C183.096 5.12267 183.091 5.23467 183.07 5.352C183.059 5.45867 183.032 5.56 182.99 5.656C182.947 5.752 182.878 5.82667 182.782 5.88C182.622 5.96533 182.435 6.01333 182.222 6.024C182.019 6.024 181.827 6.024 181.646 6.024H174.302V6.616H181.822C181.907 6.616 181.992 6.616 182.078 6.616C182.174 6.616 182.264 6.62133 182.35 6.632ZM182.478 13.416C182.488 13.416 182.526 13.4267 182.59 13.448C182.654 13.4693 182.723 13.5067 182.798 13.56C182.883 13.6027 182.958 13.6667 183.022 13.752C183.096 13.8267 183.144 13.9173 183.166 14.024C183.23 14.4293 183.166 14.744 182.974 14.968C182.856 15.1173 182.728 15.208 182.59 15.24C182.451 15.272 182.376 15.288 182.366 15.288H173.63C173.224 15.288 172.904 15.2187 172.67 15.08C172.435 14.952 172.318 14.7653 172.318 14.52V13.096C172.296 12.8613 172.296 12.6213 172.318 12.376C172.339 12.152 172.424 11.9707 172.574 11.832C172.723 11.6933 172.91 11.624 173.134 11.624C173.187 11.624 173.256 11.6293 173.342 11.64C173.438 11.64 173.512 11.6507 173.566 11.672C173.704 11.7147 173.811 11.7787 173.886 11.864C173.96 11.9493 174.019 12.0507 174.062 12.168C174.104 12.2747 174.131 12.392 174.142 12.52C174.152 12.6373 174.163 12.7547 174.174 12.872C174.174 12.9573 174.179 13.048 174.19 13.144C174.2 13.2293 174.216 13.3093 174.238 13.384C174.259 13.3947 174.355 13.4107 174.526 13.432C174.707 13.4427 174.984 13.448 175.358 13.448C175.678 13.448 175.96 13.4427 176.206 13.432C176.462 13.4213 176.595 13.416 176.606 13.416H182.478ZM181.982 8.68C182.163 8.68 182.355 8.68 182.558 8.68C182.771 8.66933 182.963 8.69067 183.134 8.744C183.315 8.78667 183.459 8.87733 183.566 9.016C183.683 9.15467 183.742 9.368 183.742 9.656C183.742 9.912 183.635 10.136 183.422 10.328C183.251 10.4773 183.043 10.5627 182.798 10.584C182.563 10.5947 182.339 10.5947 182.126 10.584C182.072 10.5733 182.024 10.568 181.982 10.568C181.939 10.568 181.891 10.568 181.838 10.568H173.022C173.011 10.568 172.963 10.568 172.878 10.568C172.792 10.568 172.691 10.5573 172.574 10.536C172.467 10.5147 172.355 10.488 172.238 10.456C172.12 10.4133 172.024 10.3493 171.95 10.264C171.822 10.1253 171.758 9.93867 171.758 9.704C171.758 9.48 171.827 9.29867 171.965 9.16C172.104 9.032 172.248 8.92533 172.398 8.84C172.547 8.75467 172.702 8.70133 172.862 8.68C172.894 8.68 172.926 8.68533 172.958 8.696C172.99 8.696 173.022 8.69067 173.054 8.68C173.203 8.65867 173.363 8.65867 173.534 8.68C173.704 8.69067 173.88 8.69067 174.062 8.68C174.616 8.65867 175.176 8.65333 175.742 8.664C176.318 8.67467 176.915 8.68 177.534 8.68C178.206 8.68 178.92 8.67467 179.678 8.664C180.435 8.65333 181.176 8.65867 181.902 8.68H181.982ZM193.019 13.304C193.019 13.144 193.019 12.9947 193.019 12.856C193.019 12.7173 193.019 12.552 193.019 12.36C193.019 12.168 193.014 11.9387 193.003 11.672C193.003 11.4053 193.003 11.0587 193.003 10.632C193.003 10.2053 193.003 9.688 193.003 9.08C193.003 8.472 193.003 7.736 193.003 6.872C193.003 6.69067 193.003 6.52 193.003 6.36C193.003 6.18933 192.993 6.01333 192.971 5.832C192.939 5.64 192.891 5.51733 192.827 5.464C192.763 5.41067 192.635 5.384 192.443 5.384C191.974 5.37333 191.558 5.37333 191.195 5.384C190.833 5.384 190.443 5.384 190.027 5.384C189.654 5.384 189.377 5.288 189.195 5.096C189.014 4.904 188.923 4.65333 188.923 4.344C188.923 4.03467 188.993 3.8 189.131 3.64C189.281 3.46933 189.494 3.35733 189.771 3.304C189.985 3.25067 190.187 3.21867 190.379 3.208C190.571 3.19733 190.785 3.192 191.019 3.192H193.307C193.361 3.192 193.414 3.19733 193.467 3.208C193.531 3.208 193.59 3.208 193.643 3.208C193.782 3.21867 193.926 3.23467 194.075 3.256C194.235 3.27733 194.379 3.31467 194.507 3.368C194.593 3.4 194.673 3.44267 194.747 3.496C194.833 3.54933 194.902 3.61333 194.955 3.688C195.062 3.83733 195.121 3.976 195.131 4.104C195.142 4.232 195.158 4.38667 195.179 4.568C195.201 4.856 195.211 5.14933 195.211 5.448C195.211 5.74667 195.211 6.04533 195.211 6.344V7.512H196.779V4.28C196.779 4.14133 196.779 4.00267 196.779 3.864C196.779 3.71467 196.795 3.57067 196.827 3.432C196.849 3.37867 196.865 3.33067 196.875 3.288C196.897 3.24533 196.918 3.19733 196.939 3.144C197.003 3.03733 197.067 2.95733 197.131 2.904C197.195 2.84 197.286 2.78667 197.403 2.744C197.457 2.72267 197.51 2.712 197.563 2.712C197.627 2.70133 197.686 2.696 197.739 2.696C198.091 2.696 198.358 2.856 198.539 3.176C198.582 3.24 198.609 3.33067 198.619 3.448C198.641 3.56533 198.657 3.688 198.667 3.816C198.678 3.93333 198.683 4.04 198.683 4.136C198.683 4.22133 198.683 4.27467 198.683 4.296V11.784V13.448C198.683 13.7147 198.673 13.928 198.651 14.088C198.641 14.248 198.593 14.4507 198.507 14.696C198.454 14.856 198.363 14.9893 198.235 15.096C198.107 15.2027 197.926 15.256 197.691 15.256C197.627 15.256 197.547 15.2453 197.451 15.224C197.355 15.2133 197.281 15.1867 197.227 15.144C197.121 15.08 197.035 14.9787 196.971 14.84C196.918 14.6907 196.875 14.536 196.843 14.376C196.811 14.216 196.79 14.0613 196.779 13.912C196.779 13.7627 196.779 13.6453 196.779 13.56V9.592L195.211 9.576V11.464C195.211 11.4747 195.211 11.5547 195.211 11.704C195.222 11.8533 195.227 12.0347 195.227 12.248C195.227 12.4613 195.227 12.6853 195.227 12.92C195.227 13.144 195.222 13.3413 195.211 13.512C195.179 13.896 195.057 14.2053 194.843 14.44C194.641 14.6747 194.353 14.792 193.979 14.792C193.787 14.792 193.627 14.744 193.499 14.648C193.371 14.552 193.27 14.4293 193.195 14.28C193.131 14.1307 193.083 13.9707 193.051 13.8C193.03 13.6187 193.019 13.4533 193.019 13.304ZM201.339 14.808C201.275 14.9467 201.174 15.064 201.035 15.16C200.822 15.2987 200.587 15.336 200.331 15.272C200.171 15.24 200.038 15.1707 199.931 15.064C199.835 14.968 199.761 14.856 199.707 14.728C199.654 14.6 199.617 14.4613 199.595 14.312C199.574 14.1627 199.563 14.0187 199.563 13.88V4.456C199.563 4.33867 199.563 4.20533 199.563 4.056C199.563 3.896 199.574 3.74667 199.595 3.608C199.617 3.45867 199.643 3.32 199.675 3.192C199.718 3.064 199.777 2.96267 199.851 2.888C199.969 2.78133 200.091 2.71733 200.219 2.696C200.347 2.664 200.486 2.648 200.635 2.648C200.817 2.648 200.966 2.70133 201.083 2.808C201.201 2.904 201.291 3.03733 201.355 3.208C201.451 3.432 201.505 3.66133 201.515 3.896C201.526 4.13067 201.537 4.37067 201.547 4.616V4.696C201.569 5.50667 201.574 6.312 201.563 7.112C201.553 7.912 201.547 8.69067 201.547 9.448V13.288C201.547 13.5653 201.537 13.832 201.515 14.088C201.505 14.344 201.446 14.584 201.339 14.808ZM209.469 12.968C209.501 13.0213 209.527 13.08 209.549 13.144C209.581 13.1973 209.607 13.2613 209.629 13.336C209.661 13.4533 209.682 13.5813 209.693 13.72C209.703 13.8587 209.671 14.0027 209.597 14.152C209.426 14.4827 209.191 14.6587 208.893 14.68H208.877C208.685 14.68 208.514 14.616 208.365 14.488C208.226 14.36 208.077 14.2053 207.917 14.024C207.757 13.8533 207.613 13.6827 207.485 13.512C207.357 13.3413 207.239 13.1867 207.133 13.048C207.122 13.0267 207.106 13.0053 207.085 12.984C207.074 12.952 207.058 12.9147 207.037 12.872C206.77 12.4667 206.573 12.184 206.445 12.024C206.317 11.864 206.242 11.7787 206.221 11.768C206.199 11.7893 206.146 11.848 206.061 11.944C205.986 12.0293 205.938 12.0827 205.917 12.104C205.895 12.136 205.874 12.168 205.853 12.2C205.831 12.2213 205.81 12.2427 205.789 12.264C205.693 12.3707 205.613 12.4827 205.549 12.6C205.495 12.7067 205.426 12.8187 205.341 12.936C205.255 13.0533 205.165 13.1653 205.069 13.272C204.983 13.3787 204.893 13.4853 204.797 13.592C204.754 13.6347 204.711 13.688 204.669 13.752C204.509 13.9333 204.338 14.1093 204.157 14.28C203.986 14.4507 203.783 14.5787 203.549 14.664C203.453 14.7067 203.346 14.728 203.229 14.728C202.983 14.728 202.765 14.632 202.573 14.44C202.391 14.2587 202.301 14.0347 202.301 13.768C202.311 13.576 202.359 13.3947 202.445 13.224C202.541 13.0533 202.631 12.8933 202.717 12.744L202.749 12.68C202.781 12.6267 202.813 12.5787 202.845 12.536C202.877 12.4933 202.909 12.4507 202.941 12.408C202.962 12.376 202.978 12.3493 202.989 12.328C203.01 12.296 203.031 12.2693 203.053 12.248C203.181 12.056 203.293 11.9013 203.389 11.784C203.41 11.7627 203.421 11.7467 203.421 11.736C203.431 11.7147 203.447 11.6933 203.469 11.672C203.49 11.6293 203.511 11.6027 203.533 11.592L203.565 11.544C203.607 11.4907 203.645 11.4427 203.677 11.4C203.709 11.3467 203.741 11.2933 203.773 11.24C203.847 11.1227 203.911 11.016 203.965 10.92C204.029 10.8133 204.087 10.712 204.141 10.616C204.205 10.4987 204.269 10.3867 204.333 10.28C204.397 10.1627 204.471 10.0507 204.557 9.944C204.61 9.85867 204.663 9.77333 204.717 9.688C204.781 9.60267 204.839 9.51733 204.893 9.432L204.957 9.336C205.031 9.21867 205.085 9.11733 205.117 9.032C205.159 8.936 205.186 8.82933 205.197 8.712C205.218 8.54133 205.229 8.376 205.229 8.216C205.229 8.04533 205.229 7.864 205.229 7.672V5.032C205.229 4.92533 205.229 4.824 205.229 4.728C205.229 4.632 205.234 4.53067 205.245 4.424C205.245 4.30667 205.255 4.18933 205.277 4.072C205.298 3.95467 205.325 3.848 205.357 3.752C205.41 3.61333 205.479 3.47467 205.565 3.336C205.618 3.25067 205.693 3.18667 205.789 3.144C205.895 3.10133 206.007 3.06933 206.125 3.048L206.157 3.032C206.242 3.01067 206.317 3.00533 206.381 3.016C206.455 3.016 206.535 3.032 206.621 3.064C206.727 3.10667 206.807 3.15467 206.861 3.208C206.914 3.25067 206.957 3.30933 206.989 3.384C207.021 3.45867 207.053 3.53867 207.085 3.624C207.181 3.82667 207.245 4.088 207.277 4.408C207.319 4.856 207.346 5.33067 207.357 5.832C207.367 6.32267 207.373 6.792 207.373 7.24C207.383 7.51733 207.389 7.79467 207.389 8.072C207.389 8.33867 207.399 8.60533 207.421 8.872C207.431 9.10667 207.49 9.32533 207.597 9.528C207.714 9.73067 207.831 9.93333 207.949 10.136C208.066 10.3707 208.189 10.6053 208.317 10.84C208.445 11.064 208.578 11.288 208.717 11.512C208.77 11.6187 208.823 11.7253 208.877 11.832C208.941 11.928 209.005 12.0293 209.069 12.136C209.09 12.1893 209.111 12.2373 209.133 12.28C209.165 12.3227 209.191 12.3653 209.213 12.408C209.234 12.4613 209.261 12.52 209.293 12.584C209.325 12.6373 209.351 12.6907 209.373 12.744L209.421 12.872L209.469 12.968ZM213.501 14.312C213.479 14.44 213.463 14.568 213.453 14.696C213.442 14.8133 213.415 14.936 213.373 15.064C213.351 15.1067 213.335 15.144 213.325 15.176C213.314 15.208 213.298 15.2453 213.277 15.288C213.202 15.4373 213.106 15.5547 212.989 15.64C212.743 15.7893 212.471 15.8267 212.173 15.752C212.002 15.72 211.863 15.656 211.757 15.56C211.661 15.4747 211.586 15.3627 211.533 15.224C211.49 15.096 211.453 14.968 211.421 14.84C211.399 14.712 211.389 14.6 211.389 14.504C211.389 14.408 211.389 14.3547 211.389 14.344V4.456C211.389 4.328 211.389 4.18933 211.389 4.04C211.389 3.89067 211.399 3.74133 211.421 3.592C211.442 3.44267 211.474 3.304 211.517 3.176C211.559 3.048 211.618 2.94667 211.693 2.872C211.81 2.75467 211.933 2.68533 212.061 2.664C212.189 2.632 212.327 2.616 212.477 2.616C212.658 2.616 212.823 2.66933 212.973 2.776C213.133 2.872 213.245 3.01067 213.309 3.192C213.405 3.416 213.458 3.65067 213.469 3.896C213.479 4.14133 213.49 4.38667 213.501 4.632V4.712C213.522 5.53333 213.527 6.376 213.517 7.24C213.506 8.104 213.501 8.92 213.501 9.688V13.736C213.501 13.832 213.501 13.928 213.501 14.024C213.511 14.12 213.511 14.216 213.501 14.312ZM216.092 7.384H216.38H216.812H220.028H220.94H222.06C222.273 7.36267 222.465 7.352 222.636 7.352C222.807 7.352 222.988 7.352 223.18 7.352C223.18 7.13867 223.185 6.92 223.196 6.696C223.217 6.472 223.228 6.25333 223.228 6.04V5.656C223.207 5.60267 223.191 5.55467 223.18 5.512C223.18 5.46933 223.169 5.432 223.148 5.4C223.095 5.35733 223.047 5.32 223.004 5.288C222.961 5.24533 222.903 5.208 222.828 5.176C222.775 5.176 222.711 5.17067 222.636 5.16C222.572 5.14933 222.513 5.144 222.46 5.144H222.028H221.66H221.116C220.903 5.144 220.716 5.144 220.556 5.144C220.396 5.13333 220.241 5.128 220.092 5.128C219.953 5.128 219.804 5.128 219.644 5.128C219.495 5.128 219.313 5.13333 219.1 5.144C218.161 5.176 217.239 5.176 216.332 5.144C216.225 5.12267 216.129 5.112 216.044 5.112C215.959 5.10133 215.873 5.08533 215.788 5.064C215.596 5.01067 215.447 4.90933 215.34 4.76C215.244 4.6 215.185 4.42933 215.164 4.248C215.153 4.056 215.191 3.86933 215.276 3.688C215.361 3.50667 215.5 3.36267 215.692 3.256C215.799 3.17067 215.921 3.11733 216.06 3.096C216.199 3.07467 216.337 3.05333 216.476 3.032C216.625 3.032 216.764 3.02667 216.892 3.016C217.031 3.00533 217.175 3 217.324 3H219.564H220.284C220.38 3.01067 220.455 3.016 220.508 3.016C220.561 3.016 220.609 3.016 220.652 3.016C220.705 3.016 220.753 3.016 220.796 3.016C220.839 3.00533 220.897 3 220.972 3C221.473 3 221.969 3.00533 222.46 3.016C222.961 3.016 223.457 3.03733 223.948 3.08C224.353 3.12267 224.652 3.224 224.844 3.384C225.047 3.544 225.18 3.74133 225.244 3.976C225.308 4.21067 225.335 4.472 225.324 4.76C225.313 5.03733 225.303 5.32 225.292 5.608C225.292 5.88533 225.281 6.10933 225.26 6.28C225.239 6.44 225.212 6.63733 225.18 6.872C225.18 6.92533 225.18 7.00533 225.18 7.112C225.18 7.21867 225.169 7.29867 225.148 7.352C225.18 7.36267 225.244 7.37333 225.34 7.384C225.436 7.384 225.537 7.38933 225.644 7.4C225.761 7.41067 225.868 7.42133 225.964 7.432C226.06 7.44267 226.124 7.45333 226.156 7.464C226.327 7.53867 226.444 7.64 226.508 7.768C226.583 7.896 226.62 8.03467 226.62 8.184C226.62 8.472 226.545 8.696 226.396 8.856C226.247 9.00533 226.049 9.10667 225.804 9.16H224.924H215.788H215.612C215.559 9.16 215.511 9.16 215.468 9.16C215.425 9.14933 215.377 9.128 215.324 9.096C215.271 9.096 215.212 9.09067 215.148 9.08C215.095 9.05867 215.031 9.03733 214.956 9.016C214.892 8.99467 214.839 8.96267 214.796 8.92C214.753 8.87733 214.711 8.83467 214.668 8.792C214.593 8.76 214.545 8.696 214.524 8.6C214.503 8.504 214.492 8.40267 214.492 8.296C214.492 8.17867 214.503 8.072 214.524 7.976C214.556 7.86933 214.62 7.784 214.716 7.72C214.769 7.66667 214.828 7.61867 214.892 7.576C214.967 7.52267 215.052 7.496 215.148 7.496C215.201 7.47467 215.265 7.45867 215.34 7.448C215.425 7.42667 215.505 7.416 215.58 7.416H215.692L215.708 7.4C215.719 7.4 215.729 7.4 215.74 7.4C215.751 7.38933 215.767 7.384 215.788 7.384H216.092ZM224.924 14.184C225.02 14.184 225.111 14.1947 225.196 14.216C225.281 14.2373 225.351 14.2747 225.404 14.328C225.521 14.3493 225.612 14.456 225.676 14.648C225.804 15.032 225.66 15.3093 225.244 15.48C225.105 15.5333 224.988 15.56 224.892 15.56H224.492H217.484H216.796H216.108C215.991 15.5387 215.884 15.512 215.788 15.48C215.692 15.448 215.617 15.3893 215.564 15.304C215.425 15.1653 215.34 14.9627 215.308 14.696L215.26 13.576V13.208C215.26 13.112 215.271 13.0213 215.292 12.936C215.324 12.84 215.367 12.7707 215.42 12.728C215.495 12.6427 215.58 12.5787 215.676 12.536C215.783 12.4827 215.9 12.44 216.028 12.408C216.145 12.3867 216.257 12.3707 216.364 12.36C216.481 12.3387 216.599 12.328 216.716 12.328H217.484H218.892C219.18 12.3493 219.484 12.3653 219.804 12.376C220.124 12.376 220.503 12.376 220.94 12.376H223.868V11.72H223.036H219.212H217.324C217.175 11.72 217.015 11.7307 216.844 11.752C216.673 11.7627 216.508 11.768 216.348 11.768C216.188 11.7573 216.033 11.7307 215.884 11.688C215.735 11.6453 215.601 11.5707 215.484 11.464C215.388 11.3893 215.319 11.2987 215.276 11.192C215.233 11.0747 215.217 10.9627 215.228 10.856C215.249 10.7387 215.292 10.6373 215.356 10.552C215.42 10.456 215.511 10.3867 215.628 10.344C215.788 10.2907 215.948 10.2587 216.108 10.248C216.279 10.2373 216.455 10.232 216.636 10.232H217.116H217.804H218.7H220.012H221.708H223.98C224.577 10.232 224.999 10.3173 225.244 10.488C225.393 10.5627 225.5 10.6693 225.564 10.808C225.639 10.936 225.676 11.0853 225.676 11.256V12.584C225.676 12.6587 225.671 12.744 225.66 12.84C225.66 12.936 225.633 13.0213 225.58 13.096C225.495 13.2453 225.383 13.368 225.244 13.464C225.041 13.5387 224.897 13.576 224.812 13.576H224.38H217.228V14.184H224.924Z" fill="white"/>
<line x1="252" y1="9.5" x2="342" y2="9.5" stroke="white"/>
</svg>
