<svg width="130" height="130" viewBox="0 0 130 130" fill="none" xmlns="http://www.w3.org/2000/svg">
<path d="M89.375 56.875C89.375 70.3625 78.4875 81.25 65 81.25C51.5125 81.25 40.625 70.3625 40.625 56.875C40.625 43.3875 51.5125 32.5 65 32.5C78.4875 32.5 89.375 43.3875 89.375 56.875Z" fill="white"/>
<path fill-rule="evenodd" clip-rule="evenodd" d="M130 65C130 100.912 100.912 130 65 130C29.0875 130 0 100.912 0 65C0 29.0875 29.0875 0 65 0C100.912 0 130 29.0875 130 65ZM32.5 111.719C33.8 109.558 46.3937 89.375 64.9187 89.375C83.3625 89.375 96.0375 109.606 97.3375 111.719C104.893 106.494 111.066 99.5128 115.326 91.3747C119.586 83.2367 121.806 74.1856 121.794 65C121.794 33.5563 96.3625 8.125 64.9187 8.125C33.475 8.125 8.04375 33.5563 8.04375 65C8.04375 84.3375 17.7125 101.481 32.5 111.719Z" fill="white"/>
</svg>
